# https://github.com/mikedh/trimesh
mtllib material.mtl
usemtl material_0
v -1.00000000 -0.05000000 2.00000000
v -1.00000000 -0.05000000 2.00000000
v -1.00000000 -0.05000000 2.00000000
v -1.00000000 0.05000000 2.00000000
v -1.00000000 0.05000000 2.00000000
v -1.00000000 0.05000000 2.00000000
v -1.00000000 -0.05000000 0.00000000
v -1.00000000 -0.05000000 0.00000000
v -1.00000000 -0.05000000 0.00000000
v -1.00000000 0.05000000 0.00000000
v -1.00000000 0.05000000 0.00000000
v -1.00000000 0.05000000 0.00000000
v 1.00000000 -0.05000000 2.00000000
v 1.00000000 -0.05000000 2.00000000
v 1.00000000 -0.05000000 2.00000000
v 1.00000000 0.05000000 2.00000000
v 1.00000000 0.05000000 2.00000000
v 1.00000000 0.05000000 2.00000000
v 1.00000000 -0.05000000 0.00000000
v 1.00000000 -0.05000000 0.00000000
v 1.00000000 -0.05000000 0.00000000
v 1.00000000 0.05000000 0.00000000
v 1.00000000 0.05000000 0.00000000
v 1.00000000 0.05000000 0.00000000
v 0.90000000 -0.05000000 0.00000000
v 0.90000000 -0.05000000 0.00000000
v 0.90000000 -0.05000000 0.00000000
v -0.90000000 -0.05000000 0.00000000
v -0.90000000 -0.05000000 0.00000000
v -0.90000000 -0.05000000 0.00000000
v -0.90000000 0.05000000 0.00000000
v -0.90000000 0.05000000 0.00000000
v -0.90000000 0.05000000 0.00000000
v -0.90000000 0.05000000 0.00000000
v 0.90000000 0.05000000 0.00000000
v 0.90000000 0.05000000 0.00000000
v 0.90000000 0.05000000 0.00000000
v 0.90000000 0.05000000 0.00000000
v -0.90000000 -0.05000000 2.00000000
v -0.90000000 -0.05000000 2.00000000
v -0.90000000 -0.05000000 2.00000000
v 0.90000000 -0.05000000 2.00000000
v 0.90000000 -0.05000000 2.00000000
v 0.90000000 -0.05000000 2.00000000
v 0.90000000 0.05000000 2.00000000
v 0.90000000 0.05000000 2.00000000
v 0.90000000 0.05000000 2.00000000
v 0.90000000 0.05000000 2.00000000
v -0.90000000 0.05000000 2.00000000
v -0.90000000 0.05000000 2.00000000
v -0.90000000 0.05000000 2.00000000
v -0.90000000 0.05000000 2.00000000
v -1.00000000 -0.05000000 0.10000000
v -1.00000000 -0.05000000 0.10000000
v -1.00000000 -0.05000000 0.10000000
v -1.00000000 -0.05000000 1.90000000
v -1.00000000 -0.05000000 1.90000000
v -1.00000000 -0.05000000 1.90000000
v -1.00000000 0.05000000 1.90000000
v -1.00000000 0.05000000 1.90000000
v -1.00000000 0.05000000 1.90000000
v -1.00000000 0.05000000 1.90000000
v -1.00000000 0.05000000 0.10000000
v -1.00000000 0.05000000 0.10000000
v -1.00000000 0.05000000 0.10000000
v -1.00000000 0.05000000 0.10000000
v 1.00000000 -0.05000000 1.90000000
v 1.00000000 -0.05000000 1.90000000
v 1.00000000 -0.05000000 1.90000000
v 1.00000000 -0.05000000 0.10000000
v 1.00000000 -0.05000000 0.10000000
v 1.00000000 -0.05000000 0.10000000
v 1.00000000 0.05000000 0.10000000
v 1.00000000 0.05000000 0.10000000
v 1.00000000 0.05000000 0.10000000
v 1.00000000 0.05000000 0.10000000
v 1.00000000 0.05000000 1.90000000
v 1.00000000 0.05000000 1.90000000
v 1.00000000 0.05000000 1.90000000
v 1.00000000 0.05000000 1.90000000
v 0.90000000 0.05000000 0.10000000
v 0.90000000 0.05000000 0.10000000
v 0.90000000 0.05000000 0.10000000
v 0.90000000 0.05000000 1.90000000
v 0.90000000 0.05000000 1.90000000
v 0.90000000 0.05000000 1.90000000
v -0.90000000 0.05000000 0.10000000
v -0.90000000 0.05000000 0.10000000
v -0.90000000 0.05000000 0.10000000
v -0.90000000 0.05000000 1.90000000
v -0.90000000 0.05000000 1.90000000
v -0.90000000 0.05000000 1.90000000
v -0.90000000 -0.05000000 0.10000000
v -0.90000000 -0.05000000 1.90000000
v 0.90000000 -0.05000000 0.10000000
v 0.90000000 -0.05000000 1.90000000
vn -1.00000000 0.00000000 0.00000000
vn 0.00000000 0.00000000 1.00000000
vn 0.00000000 -1.00000000 0.00000000
vn -1.00000000 0.00000000 0.00000000
vn 0.00000000 0.00000000 1.00000000
vn 0.00000000 1.00000000 0.00000000
vn -1.00000000 0.00000000 0.00000000
vn 0.00000000 -1.00000000 0.00000000
vn 0.00000000 0.00000000 -1.00000000
vn 0.00000000 0.00000000 -1.00000000
vn 0.00000000 1.00000000 0.00000000
vn -1.00000000 0.00000000 0.00000000
vn 1.00000000 0.00000000 0.00000000
vn 0.00000000 0.00000000 1.00000000
vn 0.00000000 -1.00000000 0.00000000
vn 0.00000000 0.00000000 1.00000000
vn 1.00000000 0.00000000 0.00000000
vn 0.00000000 1.00000000 0.00000000
vn 0.00000000 -1.00000000 0.00000000
vn 1.00000000 0.00000000 0.00000000
vn 0.00000000 0.00000000 -1.00000000
vn 0.00000000 1.00000000 0.00000000
vn 0.00000000 0.00000000 -1.00000000
vn 1.00000000 0.00000000 0.00000000
vn 0.00000000 0.00000000 -1.00000000
vn 0.00000000 0.00000000 -1.00000000
vn 0.00000000 -1.00000000 0.00000000
vn 0.00000000 -1.00000000 0.00000000
vn 0.00000000 0.00000000 -1.00000000
vn 0.00000000 0.00000000 -1.00000000
vn 0.00000000 0.00000000 -1.00000000
vn 0.00000000 0.00000000 -1.00000000
vn 0.00000000 1.00000000 0.00000000
vn 0.00000000 1.00000000 0.00000000
vn 0.00000000 1.00000000 0.00000000
vn 0.00000000 1.00000000 0.00000000
vn 0.00000000 0.00000000 -1.00000000
vn 0.00000000 0.00000000 -1.00000000
vn 0.00000000 -1.00000000 0.00000000
vn 0.00000000 0.00000000 1.00000000
vn 0.00000000 0.00000000 1.00000000
vn 0.00000000 -1.00000000 0.00000000
vn 0.00000000 0.00000000 1.00000000
vn 0.00000000 0.00000000 1.00000000
vn 0.00000000 0.00000000 1.00000000
vn 0.00000000 0.00000000 1.00000000
vn 0.00000000 1.00000000 0.00000000
vn 0.00000000 1.00000000 0.00000000
vn 0.00000000 1.00000000 0.00000000
vn 0.00000000 1.00000000 0.00000000
vn 0.00000000 0.00000000 1.00000000
vn 0.00000000 0.00000000 1.00000000
vn 0.00000000 -1.00000000 0.00000000
vn -1.00000000 0.00000000 0.00000000
vn -1.00000000 0.00000000 0.00000000
vn -1.00000000 0.00000000 0.00000000
vn -1.00000000 0.00000000 0.00000000
vn 0.00000000 -1.00000000 0.00000000
vn 0.00000000 1.00000000 0.00000000
vn 0.00000000 1.00000000 0.00000000
vn -1.00000000 0.00000000 0.00000000
vn -1.00000000 0.00000000 0.00000000
vn -1.00000000 0.00000000 0.00000000
vn -1.00000000 0.00000000 0.00000000
vn 0.00000000 1.00000000 0.00000000
vn 0.00000000 1.00000000 0.00000000
vn 1.00000000 0.00000000 0.00000000
vn 0.00000000 -1.00000000 0.00000000
vn 1.00000000 0.00000000 0.00000000
vn 0.00000000 -1.00000000 0.00000000
vn 1.00000000 0.00000000 0.00000000
vn 1.00000000 0.00000000 0.00000000
vn 0.00000000 1.00000000 0.00000000
vn 0.00000000 1.00000000 0.00000000
vn 1.00000000 0.00000000 0.00000000
vn 1.00000000 0.00000000 0.00000000
vn 1.00000000 0.00000000 0.00000000
vn 1.00000000 0.00000000 0.00000000
vn 0.00000000 1.00000000 0.00000000
vn 0.00000000 1.00000000 0.00000000
vn 0.00000000 1.00000000 0.00000000
vn 0.00000000 1.00000000 0.00000000
vn 0.00000000 1.00000000 0.00000000
vn 0.00000000 1.00000000 0.00000000
vn 0.00000000 1.00000000 0.00000000
vn 0.00000000 1.00000000 0.00000000
vn 0.00000000 1.00000000 0.00000000
vn 0.00000000 1.00000000 0.00000000
vn 0.00000000 1.00000000 0.00000000
vn 0.00000000 1.00000000 0.00000000
vn 0.00000000 1.00000000 0.00000000
vn 0.00000000 1.00000000 0.00000000
vn 0.00000000 -1.00000000 0.00000000
vn 0.00000000 -1.00000000 0.00000000
vn 0.00000000 -1.00000000 0.00000000
vn 0.00000000 -1.00000000 0.00000000
vt 0.27891000 0.82734200
vt 0.27891000 0.82734200
vt 0.27891000 0.78046700
vt 0.27891000 0.84765600
vt 0.27891000 0.84765600
vt 0.27891000 0.87890600
vt 0.27891000 0.82734200
vt 0.27891000 0.78046700
vt 0.27891000 0.82734200
vt 0.27891000 0.84765600
vt 0.27891000 0.87890600
vt 0.27891000 0.84765600
vt 0.33437100 0.82734200
vt 0.33437100 0.82734200
vt 0.33437100 0.78046700
vt 0.33437100 0.84765600
vt 0.33437100 0.84765600
vt 0.33437100 0.87890600
vt 0.33437100 0.78046700
vt 0.33437100 0.82734200
vt 0.33437100 0.82734200
vt 0.33437100 0.87890600
vt 0.33437100 0.84765600
vt 0.33437100 0.84765600
vt 0.33159800 0.82734200
vt 0.33159800 0.81171700
vt 0.33159800 0.78046700
vt 0.28168300 0.78046700
vt 0.28168300 0.81171700
vt 0.28168300 0.82734200
vt 0.28168300 0.84765600
vt 0.28168300 0.83203100
vt 0.28168300 0.87890600
vt 0.28168300 0.86328100
vt 0.33159800 0.86328100
vt 0.33159800 0.87890600
vt 0.33159800 0.84765600
vt 0.33159800 0.83203100
vt 0.28168300 0.78046700
vt 0.28168300 0.82734200
vt 0.28168300 0.81171700
vt 0.33159800 0.78046700
vt 0.33159800 0.81171700
vt 0.33159800 0.82734200
vt 0.33159800 0.83203100
vt 0.33159800 0.84765600
vt 0.33159800 0.86328100
vt 0.33159800 0.87890600
vt 0.28168300 0.87890600
vt 0.28168300 0.86328100
vt 0.28168300 0.83203100
vt 0.28168300 0.84765600
vt 0.27891000 0.78046700
vt 0.27891000 0.82734200
vt 0.27891000 0.81171700
vt 0.27891000 0.81171700
vt 0.27891000 0.82734200
vt 0.27891000 0.78046700
vt 0.27891000 0.86328100
vt 0.27891000 0.87890600
vt 0.27891000 0.83203100
vt 0.27891000 0.84765600
vt 0.27891000 0.84765600
vt 0.27891000 0.83203100
vt 0.27891000 0.87890600
vt 0.27891000 0.86328100
vt 0.33437100 0.82734200
vt 0.33437100 0.78046700
vt 0.33437100 0.81171700
vt 0.33437100 0.78046700
vt 0.33437100 0.81171700
vt 0.33437100 0.82734200
vt 0.33437100 0.86328100
vt 0.33437100 0.87890600
vt 0.33437100 0.84765600
vt 0.33437100 0.83203100
vt 0.33437100 0.83203100
vt 0.33437100 0.84765600
vt 0.33437100 0.87890600
vt 0.33437100 0.86328100
vt 0.33159800 0.84765600
vt 0.33159800 0.86328100
vt 0.33159800 0.87890600
vt 0.33159800 0.87890600
vt 0.33159800 0.84765600
vt 0.33159800 0.86328100
vt 0.28168300 0.86328100
vt 0.28168300 0.84765600
vt 0.28168300 0.87890600
vt 0.28168300 0.87890600
vt 0.28168300 0.86328100
vt 0.28168300 0.84765600
vt 0.28168300 0.78046700
vt 0.28168300 0.78046700
vt 0.33159800 0.78046700
vt 0.33159800 0.78046700
f 54/54/54 63/63/63 12/12/12
f 25/25/25 37/37/37 23/23/23
f 67/67/67 78/78/78 17/17/17
f 40/40/40 52/52/52 5/5/5
f 96/96/96 68/68/68 15/15/15
f 90/90/90 60/60/60 6/6/6
f 79/79/79 84/84/84 48/48/48
f 96/96/96 42/42/42 39/39/39
f 45/45/45 51/51/51 41/41/41
f 58/58/58 94/94/94 39/39/39
f 14/14/14 16/16/16 46/46/46
f 32/32/32 38/38/38 26/26/26
f 35/35/35 34/34/34 87/87/87
f 9/9/9 10/10/10 31/31/31
f 47/47/47 86/86/86 91/91/91
f 95/95/95 96/96/96 94/94/94
f 8/8/8 28/28/28 93/93/93
f 93/93/93 94/94/94 58/58/58
f 27/27/27 95/95/95 93/93/93
f 88/88/88 92/92/92 85/85/85
f 22/22/22 36/36/36 83/83/83
f 82/82/82 86/86/86 80/80/80
f 33/33/33 11/11/11 65/65/65
f 87/87/87 66/66/66 59/59/59
f 27/27/27 19/19/19 70/70/70
f 95/95/95 70/70/70 68/68/68
f 20/20/20 24/24/24 75/75/75
f 76/76/76 77/77/77 69/69/69
f 1/1/1 4/4/4 62/62/62
f 61/61/61 64/64/64 55/55/55
f 12/12/12 7/7/7 54/54/54
f 23/23/23 21/21/21 25/25/25
f 17/17/17 13/13/13 67/67/67
f 5/5/5 2/2/2 40/40/40
f 15/15/15 42/42/42 96/96/96
f 6/6/6 49/49/49 90/90/90
f 48/48/48 18/18/18 79/79/79
f 39/39/39 94/94/94 96/96/96
f 41/41/41 43/43/43 45/45/45
f 39/39/39 3/3/3 58/58/58
f 46/46/46 44/44/44 14/14/14
f 26/26/26 29/29/29 32/32/32
f 87/87/87 82/82/82 35/35/35
f 31/31/31 30/30/30 9/9/9
f 91/91/91 50/50/50 47/47/47
f 94/94/94 93/93/93 95/95/95
f 93/93/93 53/53/53 8/8/8
f 58/58/58 53/53/53 93/93/93
f 93/93/93 28/28/28 27/27/27
f 85/85/85 81/81/81 88/88/88
f 83/83/83 74/74/74 22/22/22
f 80/80/80 73/73/73 82/82/82
f 65/65/65 89/89/89 33/33/33
f 59/59/59 91/91/91 87/87/87
f 70/70/70 95/95/95 27/27/27
f 68/68/68 96/96/96 95/95/95
f 75/75/75 72/72/72 20/20/20
f 69/69/69 71/71/71 76/76/76
f 62/62/62 57/57/57 1/1/1
f 55/55/55 56/56/56 61/61/61

