# https://github.com/mikedh/trimesh
mtllib material.mtl
usemtl material_0
v -1.00000000 0.00000000 1.00000000
v -1.00000000 0.00000000 1.00000000
v -1.00000000 0.00000000 1.00000000
v -1.00000000 0.07000000 1.00000000
v -1.00000000 0.07000000 1.00000000
v -1.00000000 0.00000000 -1.00000000
v -1.00000000 0.00000000 -1.00000000
v -1.00000000 0.00000000 -1.00000000
v -1.00000000 0.07000000 -1.00000000
v -1.00000000 0.07000000 -1.00000000
v 1.00000000 0.00000000 1.00000000
v 1.00000000 0.00000000 1.00000000
v 1.00000000 0.00000000 1.00000000
v 1.00000000 0.07000000 1.00000000
v 1.00000000 0.07000000 1.00000000
v 1.00000000 0.00000000 -1.00000000
v 1.00000000 0.00000000 -1.00000000
v 1.00000000 0.00000000 -1.00000000
v 1.00000000 0.07000000 -1.00000000
v 1.00000000 0.07000000 -1.00000000
v 0.90000000 0.00000000 -1.00000000
v 0.90000000 0.00000000 -1.00000000
v 0.90000000 0.00000000 -1.00000000
v 0.90000000 0.00000000 -1.00000000
v -0.90000000 0.00000000 -1.00000000
v -0.90000000 0.00000000 -1.00000000
v -0.90000000 0.00000000 -1.00000000
v -0.90000000 0.00000000 -1.00000000
v -0.90000000 0.07000000 -1.00000000
v -0.90000000 0.07000000 -1.00000000
v -0.90000000 0.07000000 -1.00000000
v -0.90000000 0.07000000 -1.00000000
v 0.90000000 0.07000000 -1.00000000
v 0.90000000 0.07000000 -1.00000000
v 0.90000000 0.07000000 -1.00000000
v 0.90000000 0.07000000 -1.00000000
v -0.90000000 0.00000000 1.00000000
v -0.90000000 0.00000000 1.00000000
v -0.90000000 0.00000000 1.00000000
v -0.90000000 0.00000000 1.00000000
v 0.90000000 0.00000000 1.00000000
v 0.90000000 0.00000000 1.00000000
v 0.90000000 0.00000000 1.00000000
v 0.90000000 0.00000000 1.00000000
v 0.90000000 0.07000000 1.00000000
v 0.90000000 0.07000000 1.00000000
v 0.90000000 0.07000000 1.00000000
v 0.90000000 0.07000000 1.00000000
v -0.90000000 0.07000000 1.00000000
v -0.90000000 0.07000000 1.00000000
v -0.90000000 0.07000000 1.00000000
v -0.90000000 0.07000000 1.00000000
v -1.00000000 0.10000000 1.00000000
v -1.00000000 0.10000000 1.00000000
v -1.00000000 0.10000000 1.00000000
v -1.00000000 0.10000000 -1.00000000
v -1.00000000 0.10000000 -1.00000000
v -1.00000000 0.10000000 -1.00000000
v 1.00000000 0.10000000 -1.00000000
v 1.00000000 0.10000000 -1.00000000
v 1.00000000 0.10000000 -1.00000000
v 1.00000000 0.10000000 1.00000000
v 1.00000000 0.10000000 1.00000000
v 1.00000000 0.10000000 1.00000000
v -0.93000000 0.10000000 -1.00000000
v -0.93000000 0.10000000 -1.00000000
v -0.93000000 0.10000000 -1.00000000
v 0.93000000 0.10000000 -1.00000000
v 0.93000000 0.10000000 -1.00000000
v 0.93000000 0.10000000 -1.00000000
v 0.93000000 0.10000000 1.00000000
v 0.93000000 0.10000000 1.00000000
v 0.93000000 0.10000000 1.00000000
v -0.93000000 0.10000000 1.00000000
v -0.93000000 0.10000000 1.00000000
v -0.93000000 0.10000000 1.00000000
v -0.02000000 0.07300000 -0.90000000
v 0.02000000 0.07300000 -0.90000000
v 0.02000000 0.07300000 -0.70000000
v -0.02000000 0.07300000 -0.70000000
v -0.62000000 0.07300000 -1.00000000
v -0.58000000 0.07300000 -1.00000000
v -0.58000000 0.07300000 1.00000000
v -0.62000000 0.07300000 1.00000000
v 0.58000000 0.07300000 -1.00000000
v 0.62000000 0.07300000 -1.00000000
v 0.62000000 0.07300000 1.00000000
v 0.58000000 0.07300000 1.00000000
v -0.02000000 0.07300000 -0.50000000
v 0.02000000 0.07300000 -0.50000000
v 0.02000000 0.07300000 -0.30000000
v -0.02000000 0.07300000 -0.30000000
v -0.02000000 0.07300000 -0.10000000
v 0.02000000 0.07300000 -0.10000000
v 0.02000000 0.07300000 0.10000000
v -0.02000000 0.07300000 0.10000000
v -0.02000000 0.07300000 0.30000000
v 0.02000000 0.07300000 0.30000000
v 0.02000000 0.07300000 0.50000000
v -0.02000000 0.07300000 0.50000000
v -0.02000000 0.07300000 0.70000000
v 0.02000000 0.07300000 0.70000000
v 0.02000000 0.07300000 0.90000000
v -0.02000000 0.07300000 0.90000000
vn -1.00000000 0.00000000 0.00000000
vn 0.00000000 0.00000000 1.00000000
vn 0.00000000 -1.00000000 0.00000000
vn -1.00000000 0.00000000 0.00000000
vn 0.00000000 0.00000000 1.00000000
vn 0.00000000 -1.00000000 0.00000000
vn -1.00000000 0.00000000 0.00000000
vn 0.00000000 0.00000000 -1.00000000
vn 0.00000000 0.00000000 -1.00000000
vn -1.00000000 0.00000000 0.00000000
vn 0.00000000 -1.00000000 0.00000000
vn 0.00000000 0.00000000 1.00000000
vn 1.00000000 0.00000000 0.00000000
vn 0.00000000 0.00000000 1.00000000
vn 1.00000000 0.00000000 0.00000000
vn 0.00000000 0.00000000 -1.00000000
vn 0.00000000 -1.00000000 0.00000000
vn 1.00000000 0.00000000 0.00000000
vn 1.00000000 0.00000000 0.00000000
vn 0.00000000 0.00000000 -1.00000000
vn 0.00000000 0.00000000 -1.00000000
vn 0.00000000 -1.00000000 0.00000000
vn 0.00000000 -1.00000000 0.00000000
vn 0.00000000 0.00000000 -1.00000000
vn 0.00000000 -1.00000000 0.00000000
vn 0.00000000 0.00000000 -1.00000000
vn 0.00000000 0.00000000 -1.00000000
vn 0.00000000 -1.00000000 0.00000000
vn 0.70710678 0.70710678 0.00000000
vn 0.00000000 0.00000000 -1.00000000
vn 0.00000000 1.00000000 0.00000000
vn 0.00000000 0.00000000 -1.00000000
vn 0.00000000 0.00000000 -1.00000000
vn 0.00000000 1.00000000 0.00000000
vn -0.70710678 0.70710678 0.00000000
vn 0.00000000 0.00000000 -1.00000000
vn 0.00000000 -1.00000000 0.00000000
vn 0.00000000 0.00000000 1.00000000
vn 0.00000000 0.00000000 1.00000000
vn 0.00000000 -1.00000000 0.00000000
vn 0.00000000 -1.00000000 0.00000000
vn 0.00000000 0.00000000 1.00000000
vn 0.00000000 -1.00000000 0.00000000
vn 0.00000000 0.00000000 1.00000000
vn 0.00000000 0.00000000 1.00000000
vn -0.70710678 0.70710678 0.00000000
vn 0.00000000 1.00000000 0.00000000
vn 0.00000000 0.00000000 1.00000000
vn 0.00000000 0.00000000 1.00000000
vn 0.70710678 0.70710678 0.00000000
vn 0.00000000 0.00000000 1.00000000
vn 0.00000000 1.00000000 0.00000000
vn -1.00000000 0.00000000 0.00000000
vn 0.00000000 1.00000000 0.00000000
vn 0.00000000 0.00000000 1.00000000
vn -1.00000000 0.00000000 0.00000000
vn 0.00000000 1.00000000 0.00000000
vn 0.00000000 0.00000000 -1.00000000
vn 1.00000000 0.00000000 0.00000000
vn 0.00000000 1.00000000 0.00000000
vn 0.00000000 0.00000000 -1.00000000
vn 1.00000000 0.00000000 0.00000000
vn 0.00000000 0.00000000 1.00000000
vn 0.00000000 1.00000000 0.00000000
vn 0.00000000 0.00000000 -1.00000000
vn 0.00000000 1.00000000 0.00000000
vn 0.70710678 0.70710678 0.00000000
vn -0.70710678 0.70710678 0.00000000
vn 0.00000000 0.00000000 -1.00000000
vn 0.00000000 1.00000000 0.00000000
vn 0.00000000 0.00000000 1.00000000
vn -0.70710678 0.70710678 0.00000000
vn 0.00000000 1.00000000 0.00000000
vn 0.00000000 1.00000000 0.00000000
vn 0.70710678 0.70710678 0.00000000
vn 0.00000000 0.00000000 1.00000000
vn 0.00000000 1.00000000 0.00000000
vn 0.00000000 1.00000000 0.00000000
vn 0.00000000 1.00000000 0.00000000
vn 0.00000000 1.00000000 0.00000000
vn 0.00000000 1.00000000 0.00000000
vn 0.00000000 1.00000000 0.00000000
vn 0.00000000 1.00000000 0.00000000
vn 0.00000000 1.00000000 0.00000000
vn 0.00000000 1.00000000 0.00000000
vn 0.00000000 1.00000000 0.00000000
vn 0.00000000 1.00000000 0.00000000
vn 0.00000000 1.00000000 0.00000000
vn 0.00000000 1.00000000 0.00000000
vn 0.00000000 1.00000000 0.00000000
vn 0.00000000 1.00000000 0.00000000
vn 0.00000000 1.00000000 0.00000000
vn 0.00000000 1.00000000 0.00000000
vn 0.00000000 1.00000000 0.00000000
vn 0.00000000 1.00000000 0.00000000
vn 0.00000000 1.00000000 0.00000000
vn 0.00000000 1.00000000 0.00000000
vn 0.00000000 1.00000000 0.00000000
vn 0.00000000 1.00000000 0.00000000
vn 0.00000000 1.00000000 0.00000000
vn 0.00000000 1.00000000 0.00000000
vn 0.00000000 1.00000000 0.00000000
vn 0.00000000 1.00000000 0.00000000
vn 0.00000000 1.00000000 0.00000000
vt 0.30869400 0.81171700
vt 0.30869400 0.81171700
vt 0.30869400 0.81171700
vt 0.30869400 0.82577000
vt 0.30869400 0.82577000
vt 0.30869400 0.81171700
vt 0.30869400 0.81171700
vt 0.30869400 0.81171700
vt 0.30869400 0.82577000
vt 0.30869400 0.82577000
vt 0.34550400 0.81171700
vt 0.34550400 0.81171700
vt 0.34550400 0.81171700
vt 0.34550400 0.82577000
vt 0.34550400 0.82577000
vt 0.34550400 0.81171700
vt 0.34550400 0.81171700
vt 0.34550400 0.81171700
vt 0.34550400 0.82577000
vt 0.34550400 0.82577000
vt 0.34182300 0.78046700
vt 0.34182300 0.81171700
vt 0.34182300 0.78046700
vt 0.34182300 0.81171700
vt 0.31237500 0.81171700
vt 0.31237500 0.81171700
vt 0.31237500 0.78046700
vt 0.31237500 0.78046700
vt 0.31237500 0.82577000
vt 0.31237500 0.79115300
vt 0.31237500 0.79115300
vt 0.31237500 0.82577000
vt 0.34182300 0.82577000
vt 0.34182300 0.79115300
vt 0.34182300 0.82577000
vt 0.34182300 0.79115300
vt 0.31237500 0.81171700
vt 0.31237500 0.81171700
vt 0.31237500 0.78046700
vt 0.31237500 0.78046700
vt 0.34182300 0.81171700
vt 0.34182300 0.81171700
vt 0.34182300 0.78046700
vt 0.34182300 0.78046700
vt 0.34182300 0.82577000
vt 0.34182300 0.82577000
vt 0.34182300 0.79115300
vt 0.34182300 0.79115300
vt 0.31237500 0.82577000
vt 0.31237500 0.82577000
vt 0.31237500 0.79115300
vt 0.31237500 0.79115300
vt 0.30869400 0.83203100
vt 0.30869400 0.86328100
vt 0.30869400 0.83203100
vt 0.30869400 0.83203100
vt 0.30869400 0.86328100
vt 0.30869400 0.83203100
vt 0.34550400 0.83203100
vt 0.34550400 0.86328100
vt 0.34550400 0.83203100
vt 0.34550400 0.83203100
vt 0.34550400 0.83203100
vt 0.34550400 0.86328100
vt 0.31237500 0.83203100
vt 0.31237500 0.86328100
vt 0.31237500 0.83203100
vt 0.34182300 0.83203100
vt 0.34182300 0.83203100
vt 0.34182300 0.86328100
vt 0.34182300 0.83203100
vt 0.34182300 0.83203100
vt 0.34182300 0.86328100
vt 0.31237500 0.86328100
vt 0.31237500 0.83203100
vt 0.31237500 0.83203100
vt 0.18737500 0.91615300
vt 0.21682300 0.91615300
vt 0.21682300 0.91615300
vt 0.18737500 0.91615300
vt 0.43737500 0.66615300
vt 0.46682300 0.66615300
vt 0.46682300 0.66615300
vt 0.43737500 0.66615300
vt 0.43737500 0.66615300
vt 0.46682300 0.66615300
vt 0.46682300 0.66615300
vt 0.43737500 0.66615300
vt 0.18737500 0.91615300
vt 0.21682300 0.91615300
vt 0.21682300 0.91615300
vt 0.18737500 0.91615300
vt 0.18737500 0.91615300
vt 0.21682300 0.91615300
vt 0.21682300 0.91615300
vt 0.18737500 0.91615300
vt 0.18737500 0.91615300
vt 0.21682300 0.91615300
vt 0.21682300 0.91615300
vt 0.18737500 0.91615300
vt 0.18737500 0.91615300
vt 0.21682300 0.91615300
vt 0.21682300 0.91615300
vt 0.18737500 0.91615300
f 1/1/1 4/4/4 10/10/10
f 60/60/60 70/70/70 73/73/73
f 18/18/18 19/19/19 15/15/15
f 9/9/9 32/32/32 26/26/26
f 14/14/14 45/45/45 42/42/42
f 20/20/20 33/33/33 69/69/69
f 50/50/50 29/29/29 67/67/67
f 32/32/32 9/9/9 58/58/58
f 23/23/23 43/43/43 40/40/40
f 48/48/48 51/51/51 39/39/39
f 6/6/6 25/25/25 37/37/37
f 22/22/22 17/17/17 11/11/11
f 30/30/30 36/36/36 21/21/21
f 38/38/38 49/49/49 5/5/5
f 24/24/24 33/33/33 20/20/20
f 5/5/5 49/49/49 76/76/76
f 66/66/66 57/57/57 54/54/54
f 15/15/15 19/19/19 59/59/59
f 35/35/35 46/46/46 72/72/72
f 10/10/10 4/4/4 53/53/53
f 14/14/14 63/63/63 71/71/71
f 47/47/47 34/34/34 31/31/31
f 79/79/79 78/78/78 77/77/77
f 83/83/83 82/82/82 81/81/81
f 87/87/87 86/86/86 85/85/85
f 91/91/91 90/90/90 89/89/89
f 95/95/95 94/94/94 93/93/93
f 99/99/99 98/98/98 97/97/97
f 103/103/103 102/102/102 101/101/101
f 10/10/10 7/7/7 1/1/1
f 73/73/73 64/64/64 60/60/60
f 15/15/15 13/13/13 18/18/18
f 26/26/26 8/8/8 9/9/9
f 42/42/42 12/12/12 14/14/14
f 69/69/69 61/61/61 20/20/20
f 67/67/67 75/75/75 50/50/50
f 58/58/58 65/65/65 32/32/32
f 40/40/40 28/28/28 23/23/23
f 39/39/39 44/44/44 48/48/48
f 37/37/37 3/3/3 6/6/6
f 11/11/11 41/41/41 22/22/22
f 21/21/21 27/27/27 30/30/30
f 5/5/5 2/2/2 38/38/38
f 20/20/20 16/16/16 24/24/24
f 76/76/76 55/55/55 5/5/5
f 54/54/54 74/74/74 66/66/66
f 59/59/59 62/62/62 15/15/15
f 72/72/72 68/68/68 35/35/35
f 53/53/53 56/56/56 10/10/10
f 71/71/71 45/45/45 14/14/14
f 31/31/31 52/52/52 47/47/47
f 77/77/77 80/80/80 79/79/79
f 81/81/81 84/84/84 83/83/83
f 85/85/85 88/88/88 87/87/87
f 89/89/89 92/92/92 91/91/91
f 93/93/93 96/96/96 95/95/95
f 97/97/97 100/100/100 99/99/99
f 101/101/101 104/104/104 103/103/103

