# https://github.com/mikedh/trimesh
mtllib material.mtl
usemtl material_0
v -1.00000000 0.00000000 1.00000000
v -1.00000000 0.00000000 1.00000000
v -1.00000000 0.00000000 1.00000000
v -1.00000000 0.07000000 1.00000000
v -1.00000000 0.07000000 1.00000000
v -1.00000000 0.00000000 -1.00000000
v -1.00000000 0.00000000 -1.00000000
v -1.00000000 0.00000000 -1.00000000
v -1.00000000 0.07000000 -1.00000000
v -1.00000000 0.07000000 -1.00000000
v 1.00000000 0.00000000 1.00000000
v 1.00000000 0.00000000 1.00000000
v 1.00000000 0.00000000 1.00000000
v 1.00000000 0.07000000 1.00000000
v 1.00000000 0.07000000 1.00000000
v 1.00000000 0.00000000 -1.00000000
v 1.00000000 0.00000000 -1.00000000
v 1.00000000 0.00000000 -1.00000000
v 1.00000000 0.07000000 -1.00000000
v 1.00000000 0.07000000 -1.00000000
v 0.90000000 0.00000000 -1.00000000
v 0.90000000 0.00000000 -1.00000000
v 0.90000000 0.00000000 -1.00000000
v 0.90000000 0.00000000 -1.00000000
v -0.90000000 0.00000000 -1.00000000
v -0.90000000 0.00000000 -1.00000000
v -0.90000000 0.00000000 -1.00000000
v -0.90000000 0.00000000 -1.00000000
v -0.90000000 0.07000000 -1.00000000
v -0.90000000 0.07000000 -1.00000000
v -0.90000000 0.07000000 -1.00000000
v -0.90000000 0.07000000 -1.00000000
v 0.90000000 0.07000000 -1.00000000
v 0.90000000 0.07000000 -1.00000000
v 0.90000000 0.07000000 -1.00000000
v 0.90000000 0.07000000 -1.00000000
v -0.90000000 0.00000000 1.00000000
v -0.90000000 0.00000000 1.00000000
v -0.90000000 0.00000000 1.00000000
v -0.90000000 0.00000000 1.00000000
v 0.90000000 0.00000000 1.00000000
v 0.90000000 0.00000000 1.00000000
v 0.90000000 0.00000000 1.00000000
v 0.90000000 0.00000000 1.00000000
v 0.90000000 0.07000000 1.00000000
v 0.90000000 0.07000000 1.00000000
v 0.90000000 0.07000000 1.00000000
v 0.90000000 0.07000000 1.00000000
v -0.90000000 0.07000000 1.00000000
v -0.90000000 0.07000000 1.00000000
v -0.90000000 0.07000000 1.00000000
v -0.90000000 0.07000000 1.00000000
v -1.00000000 0.10000000 1.00000000
v -1.00000000 0.10000000 1.00000000
v -1.00000000 0.10000000 1.00000000
v -1.00000000 0.10000000 -1.00000000
v -1.00000000 0.10000000 -1.00000000
v -1.00000000 0.10000000 -1.00000000
v 1.00000000 0.10000000 -1.00000000
v 1.00000000 0.10000000 -1.00000000
v 1.00000000 0.10000000 -1.00000000
v 1.00000000 0.10000000 1.00000000
v 1.00000000 0.10000000 1.00000000
v 1.00000000 0.10000000 1.00000000
v -0.93000000 0.10000000 -1.00000000
v -0.93000000 0.10000000 -1.00000000
v -0.93000000 0.10000000 -1.00000000
v 0.93000000 0.10000000 -1.00000000
v 0.93000000 0.10000000 -1.00000000
v 0.93000000 0.10000000 -1.00000000
v 0.93000000 0.10000000 1.00000000
v 0.93000000 0.10000000 1.00000000
v 0.93000000 0.10000000 1.00000000
v -0.93000000 0.10000000 1.00000000
v -0.93000000 0.10000000 1.00000000
v -0.93000000 0.10000000 1.00000000
v -0.62000000 0.07300000 -1.00000000
v -0.58000000 0.07300000 -1.00000000
v -0.58000000 0.07300000 1.00000000
v -0.62000000 0.07300000 1.00000000
v 0.58000000 0.07300000 -1.00000000
v 0.62000000 0.07300000 -1.00000000
v 0.62000000 0.07300000 1.00000000
v 0.58000000 0.07300000 1.00000000
v 0.08000000 0.07300000 -0.30000000
v 0.22000000 0.07300000 -0.30000000
v 0.22000000 0.07300000 0.30000000
v 0.08000000 0.07300000 0.30000000
v 0.58000000 0.07300000 -0.43333300
v 0.58000000 0.07300000 0.43333300
v 0.62000000 0.07300000 0.43333300
v 0.62000000 0.07300000 -0.43333300
v -0.62000000 0.07300000 -0.43333300
v -0.62000000 0.07300000 0.43333300
v -0.58000000 0.07300000 0.43333300
v -0.58000000 0.07300000 -0.43333300
v 0.68000000 0.07300000 -0.30000000
v 0.82000000 0.07300000 -0.30000000
v 0.82000000 0.07300000 0.30000000
v 0.68000000 0.07300000 0.30000000
v -0.52000000 0.07300000 0.30000000
v -0.38000000 0.07300000 0.30000000
v -0.38000000 0.07300000 -0.30000000
v -0.52000000 0.07300000 -0.30000000
v -0.22000000 0.07300000 -0.30000000
v -0.08000000 0.07300000 -0.30000000
v -0.08000000 0.07300000 0.30000000
v -0.22000000 0.07300000 0.30000000
v 0.38000000 0.07300000 0.30000000
v 0.52000000 0.07300000 0.30000000
v 0.52000000 0.07300000 -0.30000000
v 0.38000000 0.07300000 -0.30000000
v -0.82000000 0.07300000 -0.30000000
v -0.68000000 0.07300000 -0.30000000
v -0.68000000 0.07300000 0.30000000
v -0.82000000 0.07300000 0.30000000
vn -1.00000000 0.00000000 0.00000000
vn 0.00000000 0.00000000 1.00000000
vn 0.00000000 -1.00000000 0.00000000
vn -1.00000000 0.00000000 0.00000000
vn 0.00000000 0.00000000 1.00000000
vn 0.00000000 0.00000000 -1.00000000
vn -1.00000000 0.00000000 0.00000000
vn 0.00000000 -1.00000000 0.00000000
vn 0.00000000 0.00000000 -1.00000000
vn -1.00000000 0.00000000 0.00000000
vn 0.00000000 -1.00000000 0.00000000
vn 0.00000000 0.00000000 1.00000000
vn 1.00000000 0.00000000 0.00000000
vn 1.00000000 0.00000000 0.00000000
vn 0.00000000 0.00000000 1.00000000
vn 1.00000000 0.00000000 0.00000000
vn 0.00000000 -1.00000000 0.00000000
vn 0.00000000 0.00000000 -1.00000000
vn 0.00000000 0.00000000 -1.00000000
vn 1.00000000 0.00000000 0.00000000
vn 0.00000000 -1.00000000 0.00000000
vn 0.00000000 -1.00000000 0.00000000
vn 0.00000000 0.00000000 -1.00000000
vn 0.00000000 0.00000000 -1.00000000
vn 0.00000000 0.00000000 -1.00000000
vn 0.00000000 0.00000000 -1.00000000
vn 0.00000000 -1.00000000 0.00000000
vn 0.00000000 -1.00000000 0.00000000
vn 0.00000000 1.00000000 0.00000000
vn 0.70710678 0.70710678 0.00000000
vn 0.00000000 0.00000000 -1.00000000
vn 0.00000000 0.00000000 -1.00000000
vn -0.70710678 0.70710678 0.00000000
vn 0.00000000 1.00000000 0.00000000
vn 0.00000000 0.00000000 -1.00000000
vn 0.00000000 0.00000000 -1.00000000
vn 0.00000000 0.00000000 1.00000000
vn 0.00000000 0.00000000 1.00000000
vn 0.00000000 -1.00000000 0.00000000
vn 0.00000000 -1.00000000 0.00000000
vn 0.00000000 0.00000000 1.00000000
vn 0.00000000 0.00000000 1.00000000
vn 0.00000000 -1.00000000 0.00000000
vn 0.00000000 -1.00000000 0.00000000
vn 0.00000000 0.00000000 1.00000000
vn 0.00000000 0.00000000 1.00000000
vn 0.00000000 1.00000000 0.00000000
vn -0.70710678 0.70710678 0.00000000
vn 0.70710678 0.70710678 0.00000000
vn 0.00000000 0.00000000 1.00000000
vn 0.00000000 0.00000000 1.00000000
vn 0.00000000 1.00000000 0.00000000
vn -1.00000000 0.00000000 0.00000000
vn 0.00000000 1.00000000 0.00000000
vn 0.00000000 0.00000000 1.00000000
vn 0.00000000 0.00000000 -1.00000000
vn -1.00000000 0.00000000 0.00000000
vn 0.00000000 1.00000000 0.00000000
vn 0.00000000 1.00000000 0.00000000
vn 1.00000000 0.00000000 0.00000000
vn 0.00000000 0.00000000 -1.00000000
vn 0.00000000 0.00000000 1.00000000
vn 1.00000000 0.00000000 0.00000000
vn 0.00000000 1.00000000 0.00000000
vn 0.70710678 0.70710678 0.00000000
vn 0.00000000 0.00000000 -1.00000000
vn 0.00000000 1.00000000 0.00000000
vn 0.00000000 1.00000000 0.00000000
vn 0.00000000 0.00000000 -1.00000000
vn -0.70710678 0.70710678 0.00000000
vn -0.70710678 0.70710678 0.00000000
vn 0.00000000 0.00000000 1.00000000
vn 0.00000000 1.00000000 0.00000000
vn 0.00000000 1.00000000 0.00000000
vn 0.00000000 0.00000000 1.00000000
vn 0.70710678 0.70710678 0.00000000
vn 0.00000000 1.00000000 0.00000000
vn 0.00000000 1.00000000 0.00000000
vn 0.00000000 1.00000000 0.00000000
vn 0.00000000 1.00000000 0.00000000
vn 0.00000000 1.00000000 0.00000000
vn 0.00000000 1.00000000 0.00000000
vn 0.00000000 1.00000000 0.00000000
vn 0.00000000 1.00000000 0.00000000
vn 0.00000000 1.00000000 0.00000000
vn 0.00000000 1.00000000 0.00000000
vn 0.00000000 1.00000000 0.00000000
vn 0.00000000 1.00000000 0.00000000
vn 0.00000000 1.00000000 0.00000000
vn 0.00000000 1.00000000 0.00000000
vn 0.00000000 1.00000000 0.00000000
vn 0.00000000 1.00000000 0.00000000
vn 0.00000000 1.00000000 0.00000000
vn 0.00000000 1.00000000 0.00000000
vn 0.00000000 1.00000000 0.00000000
vn 0.00000000 1.00000000 0.00000000
vn 0.00000000 1.00000000 0.00000000
vn 0.00000000 1.00000000 0.00000000
vn 0.00000000 1.00000000 0.00000000
vn 0.00000000 1.00000000 0.00000000
vn 0.00000000 1.00000000 0.00000000
vn 0.00000000 1.00000000 0.00000000
vn 0.00000000 1.00000000 0.00000000
vn 0.00000000 1.00000000 0.00000000
vn 0.00000000 1.00000000 0.00000000
vn 0.00000000 1.00000000 0.00000000
vn 0.00000000 1.00000000 0.00000000
vn 0.00000000 1.00000000 0.00000000
vn 0.00000000 1.00000000 0.00000000
vn 0.00000000 1.00000000 0.00000000
vn 0.00000000 1.00000000 0.00000000
vn 0.00000000 1.00000000 0.00000000
vn 0.00000000 1.00000000 0.00000000
vn 0.00000000 1.00000000 0.00000000
vn 0.00000000 1.00000000 0.00000000
vn 0.00000000 1.00000000 0.00000000
vt 0.30869400 0.81171700
vt 0.30869400 0.81171700
vt 0.30869400 0.81171700
vt 0.30869400 0.82577000
vt 0.30869400 0.82577000
vt 0.30869400 0.81171700
vt 0.30869400 0.81171700
vt 0.30869400 0.81171700
vt 0.30869400 0.82577000
vt 0.30869400 0.82577000
vt 0.34550400 0.81171700
vt 0.34550400 0.81171700
vt 0.34550400 0.81171700
vt 0.34550400 0.82577000
vt 0.34550400 0.82577000
vt 0.34550400 0.81171700
vt 0.34550400 0.81171700
vt 0.34550400 0.81171700
vt 0.34550400 0.82577000
vt 0.34550400 0.82577000
vt 0.34182300 0.81171700
vt 0.34182300 0.78046700
vt 0.34182300 0.78046700
vt 0.34182300 0.81171700
vt 0.31237500 0.78046700
vt 0.31237500 0.81171700
vt 0.31237500 0.81171700
vt 0.31237500 0.78046700
vt 0.31237500 0.79115300
vt 0.31237500 0.82577000
vt 0.31237500 0.79115300
vt 0.31237500 0.82577000
vt 0.34182300 0.82577000
vt 0.34182300 0.79115300
vt 0.34182300 0.82577000
vt 0.34182300 0.79115300
vt 0.31237500 0.78046700
vt 0.31237500 0.81171700
vt 0.31237500 0.81171700
vt 0.31237500 0.78046700
vt 0.34182300 0.78046700
vt 0.34182300 0.81171700
vt 0.34182300 0.78046700
vt 0.34182300 0.81171700
vt 0.34182300 0.82577000
vt 0.34182300 0.79115300
vt 0.34182300 0.79115300
vt 0.34182300 0.82577000
vt 0.31237500 0.82577000
vt 0.31237500 0.82577000
vt 0.31237500 0.79115300
vt 0.31237500 0.79115300
vt 0.30869400 0.83203100
vt 0.30869400 0.86328100
vt 0.30869400 0.83203100
vt 0.30869400 0.83203100
vt 0.30869400 0.83203100
vt 0.30869400 0.86328100
vt 0.34550400 0.86328100
vt 0.34550400 0.83203100
vt 0.34550400 0.83203100
vt 0.34550400 0.83203100
vt 0.34550400 0.83203100
vt 0.34550400 0.86328100
vt 0.31237500 0.83203100
vt 0.31237500 0.83203100
vt 0.31237500 0.86328100
vt 0.34182300 0.86328100
vt 0.34182300 0.83203100
vt 0.34182300 0.83203100
vt 0.34182300 0.83203100
vt 0.34182300 0.83203100
vt 0.34182300 0.86328100
vt 0.31237500 0.86328100
vt 0.31237500 0.83203100
vt 0.31237500 0.83203100
vt 0.43737500 0.66615300
vt 0.46682300 0.66615300
vt 0.46682300 0.66615300
vt 0.43737500 0.66615300
vt 0.43737500 0.66615300
vt 0.46682300 0.66615300
vt 0.46682300 0.66615300
vt 0.43737500 0.66615300
vt 0.18737500 0.91615300
vt 0.21682300 0.91615300
vt 0.21682300 0.91615300
vt 0.18737500 0.91615300
vt 0.43737500 0.66615300
vt 0.43737500 0.66615300
vt 0.46682300 0.66615300
vt 0.46682300 0.66615300
vt 0.43737500 0.66615300
vt 0.43737500 0.66615300
vt 0.46682300 0.66615300
vt 0.46682300 0.66615300
vt 0.18737500 0.91615300
vt 0.21682300 0.91615300
vt 0.21682300 0.91615300
vt 0.18737500 0.91615300
vt 0.18737500 0.91615300
vt 0.21682300 0.91615300
vt 0.21682300 0.91615300
vt 0.18737500 0.91615300
vt 0.18737500 0.91615300
vt 0.21682300 0.91615300
vt 0.21682300 0.91615300
vt 0.18737500 0.91615300
vt 0.18737500 0.91615300
vt 0.21682300 0.91615300
vt 0.21682300 0.91615300
vt 0.18737500 0.91615300
vt 0.18737500 0.91615300
vt 0.21682300 0.91615300
vt 0.21682300 0.91615300
vt 0.18737500 0.91615300
f 1/1/1 4/4/4 10/10/10
f 59/59/59 68/68/68 73/73/73
f 16/16/16 20/20/20 14/14/14
f 9/9/9 32/32/32 26/26/26
f 15/15/15 45/45/45 42/42/42
f 19/19/19 35/35/35 69/69/69
f 49/49/49 30/30/30 65/65/65
f 32/32/32 9/9/9 56/56/56
f 22/22/22 43/43/43 40/40/40
f 46/46/46 51/51/51 37/37/37
f 8/8/8 27/27/27 39/39/39
f 21/21/21 17/17/17 11/11/11
f 31/31/31 36/36/36 23/23/23
f 38/38/38 50/50/50 5/5/5
f 24/24/24 35/35/35 19/19/19
f 5/5/5 50/50/50 75/75/75
f 67/67/67 58/58/58 54/54/54
f 14/14/14 20/20/20 60/60/60
f 33/33/33 48/48/48 71/71/71
f 10/10/10 4/4/4 53/53/53
f 15/15/15 62/62/62 72/72/72
f 47/47/47 34/34/34 29/29/29
f 96/96/96 78/78/78 77/77/77
f 92/92/92 82/82/82 81/81/81
f 87/87/87 86/86/86 85/85/85
f 99/99/99 98/98/98 97/97/97
f 79/79/79 95/95/95 94/94/94
f 83/83/83 91/91/91 90/90/90
f 102/102/102 103/103/103 104/104/104
f 107/107/107 106/106/106 105/105/105
f 110/110/110 111/111/111 112/112/112
f 115/115/115 114/114/114 113/113/113
f 10/10/10 7/7/7 1/1/1
f 73/73/73 64/64/64 59/59/59
f 14/14/14 13/13/13 16/16/16
f 26/26/26 6/6/6 9/9/9
f 42/42/42 12/12/12 15/15/15
f 69/69/69 61/61/61 19/19/19
f 65/65/65 76/76/76 49/49/49
f 56/56/56 66/66/66 32/32/32
f 40/40/40 28/28/28 22/22/22
f 37/37/37 41/41/41 46/46/46
f 39/39/39 3/3/3 8/8/8
f 11/11/11 44/44/44 21/21/21
f 23/23/23 25/25/25 31/31/31
f 5/5/5 2/2/2 38/38/38
f 19/19/19 18/18/18 24/24/24
f 75/75/75 55/55/55 5/5/5
f 54/54/54 74/74/74 67/67/67
f 60/60/60 63/63/63 14/14/14
f 71/71/71 70/70/70 33/33/33
f 53/53/53 57/57/57 10/10/10
f 72/72/72 45/45/45 15/15/15
f 29/29/29 52/52/52 47/47/47
f 77/77/77 93/93/93 96/96/96
f 81/81/81 89/89/89 92/92/92
f 85/85/85 88/88/88 87/87/87
f 97/97/97 100/100/100 99/99/99
f 94/94/94 80/80/80 79/79/79
f 90/90/90 84/84/84 83/83/83
f 104/104/104 101/101/101 102/102/102
f 105/105/105 108/108/108 107/107/107
f 112/112/112 109/109/109 110/110/110
f 113/113/113 116/116/116 115/115/115

