# https://github.com/mikedh/trimesh
mtllib material.mtl
usemtl material_0
v -1.00000000 0.00000000 1.00000000
v -1.00000000 0.00000000 1.00000000
v -1.00000000 0.00000000 1.00000000
v -1.00000000 0.07000000 1.00000000
v -1.00000000 0.07000000 1.00000000
v -1.00000000 0.00000000 -1.00000000
v -1.00000000 0.00000000 -1.00000000
v -1.00000000 0.00000000 -1.00000000
v -1.00000000 0.07000000 -1.00000000
v -1.00000000 0.07000000 -1.00000000
v 1.00000000 0.00000000 1.00000000
v 1.00000000 0.00000000 1.00000000
v 1.00000000 0.00000000 1.00000000
v 1.00000000 0.07000000 1.00000000
v 1.00000000 0.07000000 1.00000000
v 1.00000000 0.00000000 -1.00000000
v 1.00000000 0.00000000 -1.00000000
v 1.00000000 0.00000000 -1.00000000
v 1.00000000 0.07000000 -1.00000000
v 1.00000000 0.07000000 -1.00000000
v 0.90000000 0.00000000 -1.00000000
v 0.90000000 0.00000000 -1.00000000
v -0.90000000 0.00000000 -1.00000000
v -0.90000000 0.00000000 -1.00000000
v -0.90000000 0.07000000 -1.00000000
v 0.90000000 0.07000000 -1.00000000
v -0.90000000 0.00000000 1.00000000
v -0.90000000 0.00000000 1.00000000
v -0.90000000 0.00000000 1.00000000
v -0.90000000 0.00000000 1.00000000
v 0.90000000 0.00000000 1.00000000
v 0.90000000 0.00000000 1.00000000
v 0.90000000 0.00000000 1.00000000
v 0.90000000 0.00000000 1.00000000
v 0.90000000 0.07000000 1.00000000
v 0.90000000 0.07000000 1.00000000
v 0.90000000 0.07000000 1.00000000
v 0.90000000 0.07000000 1.00000000
v -0.90000000 0.07000000 1.00000000
v -0.90000000 0.07000000 1.00000000
v -0.90000000 0.07000000 1.00000000
v -0.90000000 0.07000000 1.00000000
v -1.00000000 0.00000000 -0.90000000
v -1.00000000 0.00000000 -0.90000000
v -1.00000000 0.00000000 0.90000000
v -1.00000000 0.00000000 0.90000000
v -1.00000000 0.07000000 0.90000000
v -1.00000000 0.07000000 -0.90000000
v 1.00000000 0.00000000 0.90000000
v 1.00000000 0.00000000 0.90000000
v 1.00000000 0.00000000 0.90000000
v 1.00000000 0.00000000 0.90000000
v 1.00000000 0.00000000 -0.90000000
v 1.00000000 0.00000000 -0.90000000
v 1.00000000 0.00000000 -0.90000000
v 1.00000000 0.00000000 -0.90000000
v 1.00000000 0.07000000 -0.90000000
v 1.00000000 0.07000000 -0.90000000
v 1.00000000 0.07000000 -0.90000000
v 1.00000000 0.07000000 -0.90000000
v 1.00000000 0.07000000 0.90000000
v 1.00000000 0.07000000 0.90000000
v 1.00000000 0.07000000 0.90000000
v 1.00000000 0.07000000 0.90000000
v 0.90000000 0.07000000 -0.90000000
v 0.90000000 0.07000000 -0.90000000
v 0.90000000 0.07000000 0.90000000
v 0.90000000 0.07000000 0.90000000
v 0.90000000 0.07000000 0.90000000
v -0.90000000 0.07000000 0.90000000
v -0.90000000 0.07000000 0.90000000
v -0.90000000 0.00000000 -0.90000000
v -0.90000000 0.00000000 -0.90000000
v -0.90000000 0.00000000 0.90000000
v -0.90000000 0.00000000 0.90000000
v 0.90000000 0.00000000 -0.90000000
v 0.90000000 0.00000000 -0.90000000
v 0.90000000 0.00000000 0.90000000
v 0.90000000 0.00000000 0.90000000
v -1.00000000 0.10000000 -1.00000000
v -1.00000000 0.10000000 -1.00000000
v -1.00000000 0.10000000 -1.00000000
v 1.00000000 0.10000000 -1.00000000
v 1.00000000 0.10000000 -1.00000000
v 1.00000000 0.10000000 -1.00000000
v 1.00000000 0.10000000 1.00000000
v 1.00000000 0.10000000 1.00000000
v 1.00000000 0.10000000 1.00000000
v -1.00000000 0.10000000 1.00000000
v -1.00000000 0.10000000 1.00000000
v -1.00000000 0.10000000 1.00000000
v 0.90000000 0.10000000 -1.00000000
v 0.90000000 0.10000000 -1.00000000
v 0.93000000 0.10000000 1.00000000
v 0.93000000 0.10000000 1.00000000
v 0.93000000 0.10000000 1.00000000
v -0.93000000 0.10000000 1.00000000
v -0.93000000 0.10000000 1.00000000
v -0.93000000 0.10000000 1.00000000
v -1.00000000 0.10000000 0.90000000
v -1.00000000 0.10000000 0.90000000
v 1.00000000 0.10000000 -0.93000000
v 1.00000000 0.10000000 -0.93000000
v 1.00000000 0.10000000 -0.93000000
v 1.00000000 0.10000000 0.93000000
v 1.00000000 0.10000000 0.93000000
v 1.00000000 0.10000000 0.93000000
v 0.90000000 0.10000000 -0.93000000
v 0.90000000 0.10000000 -0.93000000
v 0.93000000 0.10000000 0.93000000
v 0.93000000 0.10000000 0.93000000
v 0.93000000 0.10000000 0.93000000
v -0.93000000 0.10000000 0.90000000
v -0.93000000 0.10000000 0.90000000
v 0.45112300 0.07000000 -0.90000000
v 0.45112300 0.07000000 -0.90000000
v -0.90000000 0.07000000 0.45112300
v -0.90000000 0.07000000 0.45112300
v 0.15047000 0.07000000 -0.86612500
v 0.15047000 0.07000000 -0.86612500
v -0.13510700 0.07000000 -0.76619700
v -0.13510700 0.07000000 -0.76619700
v -0.39128800 0.07000000 -0.60522800
v -0.39128800 0.07000000 -0.60522800
v -0.60522800 0.07000000 -0.39128900
v -0.60522800 0.07000000 -0.39128900
v -0.76619700 0.07000000 -0.13510700
v -0.76619700 0.07000000 -0.13510700
v -0.86612500 0.07000000 0.15047000
v -0.86612500 0.07000000 0.15047000
v -0.93000000 0.10000000 0.42112300
v -0.93000000 0.10000000 0.42112300
v 0.42112300 0.10000000 -0.93000000
v 0.42112300 0.10000000 -0.93000000
v 0.42112300 0.10000000 -0.93000000
v -0.90000000 0.10000000 -0.99995000
v -0.90000000 0.10000000 -0.99995000
v -0.99995000 0.10000000 -0.90000000
v -0.99995000 0.10000000 -0.90000000
v -0.89612500 0.10000000 0.12047000
v -0.89612500 0.10000000 0.12047000
v -0.79619700 0.10000000 -0.16510700
v -0.79619700 0.10000000 -0.16510700
v -0.63522800 0.10000000 -0.42128800
v -0.63522800 0.10000000 -0.42128800
v -0.42128900 0.10000000 -0.63522800
v -0.42128900 0.10000000 -0.63522800
v -0.16510700 0.10000000 -0.79619700
v -0.16510700 0.10000000 -0.79619700
v 0.12047000 0.10000000 -0.89612500
v 0.12047000 0.10000000 -0.89612500
v 0.58000000 0.07300000 0.87241700
v 0.62000000 0.07300000 1.00000000
v 0.58000000 0.07300000 1.00000000
v 0.87241700 0.07300000 0.58000000
v 1.00000000 0.07300000 0.62000000
v 1.00000000 0.07300000 0.58000000
v 0.90000000 0.07300000 0.62000000
v 0.62000000 0.07300000 0.90000000
v 0.78671700 0.07300000 0.63518200
v 0.69372600 0.07300000 0.69372600
v 0.63518200 0.07300000 0.78671700
v 0.60225900 0.07300000 0.76051400
v 0.66564700 0.07300000 0.66564700
v 0.76051400 0.07300000 0.60225900
v -0.58000000 0.07300000 1.00000000
v -0.62000000 0.07300000 1.00000000
v 1.00000000 0.07300000 -0.62000000
v 1.00000000 0.07300000 -0.58000000
v 0.51600900 0.07300000 -0.58000000
v -0.58000000 0.07300000 0.51601100
v 0.27212400 0.07300000 -0.55252100
v 0.04046800 0.07300000 -0.47146100
v -0.16734200 0.07300000 -0.34088500
v -0.34088500 0.07300000 -0.16734100
v -0.47146100 0.07300000 0.04047000
v -0.55252100 0.07300000 0.27212500
v -0.62000000 0.07300000 0.47601100
v 0.47601100 0.07300000 -0.62000000
v -0.59252100 0.07300000 0.23212500
v -0.51146100 0.07300000 0.00046900
v -0.38088500 0.07300000 -0.20734100
v -0.20734100 0.07300000 -0.38088500
v 0.00046900 0.07300000 -0.51146100
v 0.23212500 0.07300000 -0.59252100
v 0.02000000 0.07300000 0.50000000
v -0.02000000 0.07300000 0.50000000
v -0.02000000 0.07300000 0.70000000
v 0.02000000 0.07300000 0.70000000
v 0.02000000 0.07300000 0.90000000
v -0.02000000 0.07300000 0.90000000
v 0.90000000 0.07300000 -0.02000000
v 0.90000000 0.07300000 0.02000000
v 0.70000000 0.07300000 0.02000000
v 0.70000000 0.07300000 -0.02000000
v 0.50000000 0.07300000 -0.02000000
v 0.50000000 0.07300000 0.02000000
v 0.40000000 0.07300000 0.02000000
v 0.40000000 0.07300000 -0.02000000
v 0.02000000 0.07300000 0.40000000
v -0.02000000 0.07300000 0.40000000
v -0.00734300 0.07300000 0.30866800
v 0.02512100 0.07300000 0.22129700
v 0.07495700 0.07300000 0.14146100
v 0.14146100 0.07300000 0.07495700
v 0.22129700 0.07300000 0.02512100
v 0.30866800 0.07300000 -0.00734300
v 0.31392600 0.07300000 0.02801100
v 0.23293100 0.07300000 0.05543800
v 0.15974800 0.07300000 0.09957800
v 0.09957800 0.07300000 0.15974800
v 0.05543800 0.07300000 0.23293100
v 0.02801100 0.07300000 0.31392600
vn -1.00000000 0.00000000 0.00000000
vn 0.00000000 -1.00000000 0.00000000
vn 0.00000000 0.00000000 1.00000000
vn -1.00000000 0.00000000 0.00000000
vn 0.00000000 0.00000000 1.00000000
vn -1.00000000 0.00000000 0.00000000
vn 0.00000000 -1.00000000 0.00000000
vn 0.00000000 0.00000000 -1.00000000
vn 0.00000000 0.00000000 -1.00000000
vn -0.99999997 0.00015462 0.00020361
vn 0.00000000 -1.00000000 0.00000000
vn 1.00000000 0.00000000 0.00000000
vn 0.00000000 0.00000000 1.00000000
vn 0.00000000 0.00000000 1.00000000
vn 1.00000000 0.00000000 0.00000000
vn 0.00000000 0.00000000 -1.00000000
vn 0.00000000 -1.00000000 0.00000000
vn 1.00000000 0.00000000 0.00000000
vn 0.00000000 0.00000000 -1.00000000
vn 1.00000000 0.00000000 0.00000000
vn 0.00000000 -1.00000000 0.00000000
vn 0.00000000 0.00000000 -1.00000000
vn 0.00000000 -1.00000000 0.00000000
vn 0.00000000 0.00000000 -1.00000000
vn 0.00009494 0.00075160 -0.99999971
vn 0.00000000 0.00000000 -1.00000000
vn 0.00000000 0.00000000 1.00000000
vn 0.00000000 -1.00000000 0.00000000
vn 0.00000000 0.00000000 1.00000000
vn 0.00000000 -1.00000000 0.00000000
vn 0.00000000 -1.00000000 0.00000000
vn 0.00000000 -1.00000000 0.00000000
vn 0.00000000 0.00000000 1.00000000
vn 0.00000000 0.00000000 1.00000000
vn 0.00000000 0.00000000 1.00000000
vn 0.00000000 0.00000000 1.00000000
vn 0.00000000 1.00000000 0.00000000
vn -0.70710678 0.70710678 0.00000000
vn 0.70710678 0.70710678 0.00000000
vn 0.00000000 0.00000000 1.00000000
vn 0.00000000 0.00000000 1.00000000
vn 0.00000000 1.00000000 0.00000000
vn 0.00000000 -1.00000000 0.00000000
vn -1.00000000 0.00000000 0.00000000
vn 0.00000000 -1.00000000 0.00000000
vn -1.00000000 0.00000000 0.00000000
vn -1.00000000 0.00000442 -0.00000687
vn -0.99999965 0.00083333 0.00000000
vn 1.00000000 0.00000000 0.00000000
vn 0.00000000 -1.00000000 0.00000000
vn 1.00000000 0.00000000 0.00000000
vn 0.00000000 -1.00000000 0.00000000
vn 0.00000000 -1.00000000 0.00000000
vn 0.00000000 -1.00000000 0.00000000
vn 1.00000000 0.00000000 0.00000000
vn 1.00000000 0.00000000 0.00000000
vn 1.00000000 0.00000000 0.00000000
vn 0.00000000 1.00000000 0.00000000
vn 1.00000000 0.00000000 0.00000000
vn 0.00000000 0.70710678 0.70710678
vn 1.00000000 0.00000000 0.00000000
vn 1.00000000 0.00000000 0.00000000
vn 0.00000000 1.00000000 0.00000000
vn 0.00000000 0.70710678 -0.70710678
vn 0.00000000 0.70710678 0.70710678
vn 0.00000000 1.00000000 0.00000000
vn 0.00000000 1.00000000 0.00000000
vn -0.70710678 0.70710678 0.00000000
vn 0.00000000 0.70710678 -0.70710678
vn 0.70710678 0.70710678 0.00000000
vn 0.00000000 1.00000000 0.00000000
vn 0.00000000 -1.00000000 0.00000000
vn 0.00000000 -1.00000000 0.00000000
vn 0.00000000 -1.00000000 0.00000000
vn 0.00000000 -1.00000000 0.00000000
vn 0.00000000 -1.00000000 0.00000000
vn 0.00000000 -1.00000000 0.00000000
vn 0.00000000 -1.00000000 0.00000000
vn 0.00000000 -1.00000000 0.00000000
vn -0.99999988 0.00000000 0.00050000
vn 0.00009277 0.00030925 -0.99999995
vn 0.00000000 1.00000000 0.00000000
vn 0.00000000 1.00000000 0.00000000
vn 1.00000000 0.00000000 0.00000000
vn 0.00000000 0.00000000 -1.00000000
vn 0.00000000 1.00000000 0.00000000
vn 1.00000000 0.00000000 0.00000000
vn 0.00000000 0.00000000 1.00000000
vn 0.00000000 0.00000000 1.00000000
vn -1.00000000 0.00000000 0.00000000
vn 0.00000000 1.00000000 0.00000000
vn 0.00000000 1.00000000 0.00000000
vn -0.00000015 0.00000884 -1.00000000
vn 0.00000000 1.00000000 0.00000000
vn 0.00000000 0.00000000 1.00000000
vn -0.70710678 0.70710678 0.00000000
vn 0.00000000 0.00000000 1.00000000
vn 0.00000000 1.00000000 0.00000000
vn 0.70710678 0.70710678 0.00000000
vn -1.00000000 0.00000000 -0.00001389
vn 0.00000000 1.00000000 0.00000000
vn 0.00000000 1.00000000 0.00000000
vn 0.00000000 0.70710678 0.70710678
vn 1.00000000 0.00000000 0.00000000
vn 0.00000000 0.70710678 -0.70710678
vn 1.00000000 0.00000000 0.00000000
vn 0.00000000 1.00000000 0.00000000
vn 0.00000000 1.00000000 0.00000000
vn 0.00000000 0.70710678 0.70710678
vn 0.00000000 1.00000000 0.00000000
vn 0.00000000 0.70710678 -0.70710678
vn -0.70710678 0.70710678 0.00000000
vn 0.00000000 1.00000000 0.00000000
vn 0.70710678 0.70710678 0.00000000
vn 0.02417937 0.71888635 0.69470697
vn 0.00000000 1.00000000 0.00000000
vn 0.00000000 1.00000000 0.00000000
vn 0.69470697 0.71888635 0.02417937
vn 0.12245132 0.76033528 0.63788395
vn 0.00000000 1.00000000 0.00000000
vn 0.00000000 1.00000000 0.00000000
vn 0.24983967 0.79811029 0.54827010
vn 0.35843654 0.81455066 0.45610357
vn 0.00000000 1.00000000 0.00000000
vn 0.00000000 1.00000000 0.00000000
vn 0.45611080 0.81454335 0.35844395
vn 0.54827036 0.79811009 0.24983973
vn 0.00000000 1.00000000 0.00000000
vn 0.63788395 0.76033528 0.12245132
vn 0.00000000 1.00000000 0.00000000
vn 0.00000000 1.00000000 0.00000000
vn 0.67983541 0.73153980 0.05170439
vn 0.05170439 0.73153980 0.67983541
vn 0.00000000 1.00000000 0.00000000
vn 0.00000000 1.00000000 0.00000000
vn 0.00000000 1.00000000 0.00000000
vn 0.00023611 0.00166666 -0.99999858
vn 0.00000000 1.00000000 0.00000000
vn -0.99999887 0.00150320 0.00004624
vn 0.00000000 1.00000000 0.00000000
vn 0.61379456 0.77320424 0.15940968
vn 0.53332974 0.80208002 0.26875088
vn 0.00000000 1.00000000 0.00000000
vn 0.00000000 1.00000000 0.00000000
vn 0.45091283 0.81495143 0.36404916
vn 0.00000000 1.00000000 0.00000000
vn 0.36404345 0.81495892 0.45090390
vn 0.26875071 0.80208022 0.53332952
vn 0.00000000 1.00000000 0.00000000
vn 0.15940968 0.77320424 0.61379456
vn 0.00000000 1.00000000 0.00000000
vn 0.00000000 1.00000000 0.00000000
vn 0.00000000 1.00000000 0.00000000
vn 0.00000000 1.00000000 0.00000000
vn 0.00000000 1.00000000 0.00000000
vn 0.00000000 1.00000000 0.00000000
vn 0.00000000 1.00000000 0.00000000
vn 0.00000000 1.00000000 0.00000000
vn 0.00000000 1.00000000 0.00000000
vn 0.00000000 1.00000000 0.00000000
vn 0.00000000 1.00000000 0.00000000
vn 0.00000000 1.00000000 0.00000000
vn 0.00000000 1.00000000 0.00000000
vn 0.00000000 1.00000000 0.00000000
vn 0.00000000 1.00000000 0.00000000
vn 0.00000000 1.00000000 0.00000000
vn 0.00000000 1.00000000 0.00000000
vn 0.00000000 1.00000000 0.00000000
vn 0.00000000 1.00000000 0.00000000
vn 0.00000000 1.00000000 0.00000000
vn 0.00000000 1.00000000 0.00000000
vn 0.00000000 1.00000000 0.00000000
vn 0.00000000 1.00000000 0.00000000
vn 0.00000000 1.00000000 0.00000000
vn 0.00000000 1.00000000 0.00000000
vn 0.00000000 1.00000000 0.00000000
vn 0.00000000 1.00000000 0.00000000
vn 0.00000000 1.00000000 0.00000000
vn 0.00000000 1.00000000 0.00000000
vn 0.00000000 1.00000000 0.00000000
vn 0.00000000 1.00000000 0.00000000
vn 0.00000000 1.00000000 0.00000000
vn 0.00000000 1.00000000 0.00000000
vn 0.00000000 1.00000000 0.00000000
vn 0.00000000 1.00000000 0.00000000
vn 0.00000000 1.00000000 0.00000000
vn 0.00000000 1.00000000 0.00000000
vn 0.00000000 1.00000000 0.00000000
vn 0.00000000 1.00000000 0.00000000
vn 0.00000000 1.00000000 0.00000000
vn 0.00000000 1.00000000 0.00000000
vn 0.00000000 1.00000000 0.00000000
vn 0.00000000 1.00000000 0.00000000
vn 0.00000000 1.00000000 0.00000000
vn 0.00000000 1.00000000 0.00000000
vn 0.00000000 1.00000000 0.00000000
vn 0.00000000 1.00000000 0.00000000
vn 0.00000000 1.00000000 0.00000000
vn 0.00000000 1.00000000 0.00000000
vn 0.00000000 1.00000000 0.00000000
vn 0.00000000 1.00000000 0.00000000
vn 0.00000000 1.00000000 0.00000000
vn 0.00000000 1.00000000 0.00000000
vn 0.00000000 1.00000000 0.00000000
vn 0.00000000 1.00000000 0.00000000
vn 0.00000000 1.00000000 0.00000000
vn 0.00000000 1.00000000 0.00000000
vn 0.00000000 1.00000000 0.00000000
vn 0.00000000 1.00000000 0.00000000
vn 0.00000000 1.00000000 0.00000000
vn 0.00000000 1.00000000 0.00000000
vn 0.00000000 1.00000000 0.00000000
vn 0.00000000 1.00000000 0.00000000
vt 0.30869400 0.81171700
vt 0.30869400 0.81171700
vt 0.30869400 0.81171700
vt 0.30869400 0.82577000
vt 0.30869400 0.82577000
vt 0.30869400 0.81171700
vt 0.30869400 0.81171700
vt 0.30869400 0.81171700
vt 0.30869400 0.82577000
vt 0.30869400 0.82577000
vt 0.34550400 0.81171700
vt 0.34550400 0.81171700
vt 0.34550400 0.81171700
vt 0.34550400 0.82577000
vt 0.34550400 0.82577000
vt 0.34550400 0.81171700
vt 0.34550400 0.81171700
vt 0.34550400 0.81171700
vt 0.34550400 0.82577000
vt 0.34550400 0.82577000
vt 0.34182300 0.81171700
vt 0.34182300 0.81171700
vt 0.31237500 0.81171700
vt 0.31237500 0.81171700
vt 0.31237500 0.82577000
vt 0.34182300 0.82577000
vt 0.31237500 0.78046700
vt 0.31237500 0.78046700
vt 0.31237500 0.81171700
vt 0.31237500 0.81171700
vt 0.34182300 0.81171700
vt 0.34182300 0.78046700
vt 0.34182300 0.78046700
vt 0.34182300 0.81171700
vt 0.34182300 0.79115300
vt 0.34182300 0.82577000
vt 0.34182300 0.79115300
vt 0.34182300 0.82577000
vt 0.31237500 0.82577000
vt 0.31237500 0.82577000
vt 0.31237500 0.79115300
vt 0.31237500 0.79115300
vt 0.30869400 0.81171700
vt 0.30869400 0.81171700
vt 0.30869400 0.81171700
vt 0.30869400 0.81171700
vt 0.30869400 0.82577000
vt 0.30869400 0.82577000
vt 0.34550400 0.81171700
vt 0.34550400 0.81171700
vt 0.34550400 0.78046700
vt 0.34550400 0.78046700
vt 0.34550400 0.78046700
vt 0.34550400 0.81171700
vt 0.34550400 0.81171700
vt 0.34550400 0.78046700
vt 0.34550400 0.79115300
vt 0.34550400 0.79115300
vt 0.34550400 0.82577000
vt 0.34550400 0.82577000
vt 0.34550400 0.82577000
vt 0.34550400 0.79115300
vt 0.34550400 0.79115300
vt 0.34550400 0.82577000
vt 0.34182300 0.82577000
vt 0.34182300 0.79115300
vt 0.34182300 0.79115300
vt 0.34182300 0.82577000
vt 0.34182300 0.82577000
vt 0.31237500 0.82577000
vt 0.31237500 0.79115300
vt 0.31237500 0.78046700
vt 0.31237500 0.81171700
vt 0.31237500 0.81171700
vt 0.31237500 0.78046700
vt 0.34182300 0.81171700
vt 0.34182300 0.78046700
vt 0.34182300 0.81171700
vt 0.34182300 0.78046700
vt 0.30869400 0.83203100
vt 0.30869400 0.83203100
vt 0.30869400 0.86328100
vt 0.34550400 0.86328100
vt 0.34550400 0.83203100
vt 0.34550400 0.83203100
vt 0.34550400 0.86328100
vt 0.34550400 0.83203100
vt 0.34550400 0.83203100
vt 0.30869400 0.83203100
vt 0.30869400 0.83203100
vt 0.30869400 0.86328100
vt 0.34182300 0.86328100
vt 0.34182300 0.83203100
vt 0.34182300 0.86328100
vt 0.34182300 0.83203100
vt 0.34182300 0.83203100
vt 0.31237500 0.83203100
vt 0.31237500 0.86328100
vt 0.31237500 0.83203100
vt 0.30869400 0.83203100
vt 0.30869400 0.86328100
vt 0.34550400 0.86328100
vt 0.34550400 0.83203100
vt 0.34550400 0.83203100
vt 0.34550400 0.83203100
vt 0.34550400 0.83203100
vt 0.34550400 0.86328100
vt 0.34182300 0.86328100
vt 0.34182300 0.83203100
vt 0.34182300 0.86328100
vt 0.34182300 0.83203100
vt 0.34182300 0.83203100
vt 0.31237500 0.86328100
vt 0.31237500 0.83203100
vt 0.33447900 0.82577000
vt 0.33447900 0.79115300
vt 0.31237500 0.79115300
vt 0.31237500 0.82577000
vt 0.32956100 0.82577000
vt 0.32956100 0.79115300
vt 0.32488900 0.79115300
vt 0.32488900 0.82577000
vt 0.32069800 0.82577000
vt 0.32069800 0.79115300
vt 0.31719800 0.79115300
vt 0.31237500 0.82577000
vt 0.31237500 0.82577000
vt 0.31456400 0.79115300
vt 0.31237500 0.82577000
vt 0.31292900 0.79115300
vt 0.31237500 0.86328100
vt 0.31237500 0.83203100
vt 0.33447900 0.83203100
vt 0.33447900 0.86328100
vt 0.31237500 0.86328100
vt 0.31237500 0.86328100
vt 0.31237500 0.83203100
vt 0.30869600 0.86328100
vt 0.30869400 0.83203100
vt 0.31362200 0.86328100
vt 0.31237500 0.83203100
vt 0.31237500 0.83203100
vt 0.31730000 0.86328200
vt 0.31237500 0.86328100
vt 0.31237500 0.83203100
vt 0.31237500 0.86328100
vt 0.32069800 0.83203100
vt 0.32488900 0.83203100
vt 0.31237500 0.86328100
vt 0.32956100 0.83203100
vt 0.31237500 0.86328100
vt 0.41957400 0.66615300
vt 0.43117400 0.66615300
vt 0.41957400 0.66615300
vt 0.41957400 0.66615300
vt 0.43117400 0.66615300
vt 0.41957400 0.66615300
vt 0.43117400 0.66615300
vt 0.43117400 0.66615300
vt 0.43933500 0.66615300
vt 0.43117400 0.66615300
vt 0.43933500 0.66615300
vt 0.42798800 0.66615300
vt 0.43117400 0.66615300
vt 0.42798800 0.66615300
vt 0.44686800 0.66615300
vt 0.44686800 0.66615300
vt 0.44686800 0.66615300
vt 0.44686800 0.66615300
vt 0.44686800 0.66615300
vt 0.44686800 0.66615300
vt 0.44686800 0.66615300
vt 0.44686800 0.66615300
vt 0.44686800 0.66615300
vt 0.44686800 0.66615300
vt 0.44686800 0.66615300
vt 0.44686800 0.66615300
vt 0.44686800 0.66615300
vt 0.44686800 0.66615300
vt 0.44686800 0.66615300
vt 0.44686800 0.66615300
vt 0.44686800 0.66615300
vt 0.44686800 0.66615300
vt 0.44686800 0.66615300
vt 0.44686800 0.66615300
vt 0.18633200 0.91615300
vt 0.18633200 0.91615300
vt 0.18633200 0.91615300
vt 0.18633200 0.91615300
vt 0.18633200 0.91615300
vt 0.18633200 0.91615300
vt 0.18633200 0.91615300
vt 0.18633200 0.91615300
vt 0.18633200 0.91615300
vt 0.18633200 0.91615300
vt 0.18633200 0.91615300
vt 0.18633200 0.91615300
vt 0.18633200 0.91615300
vt 0.18633200 0.91615300
vt 0.18633200 0.91615300
vt 0.18633200 0.91615300
vt 0.18633200 0.91615300
vt 0.18633200 0.91615300
vt 0.18633200 0.91615300
vt 0.18633200 0.91615300
vt 0.18633200 0.91615300
vt 0.18633200 0.91615300
vt 0.18633200 0.91615300
vt 0.18633200 0.91615300
vt 0.18633200 0.91615300
vt 0.18633200 0.91615300
vt 0.18633200 0.91615300
vt 0.18633200 0.91615300
f 67/67/67 63/63/63 58/58/58
f 58/58/58 66/66/66 67/67/67
f 4/4/4 47/47/47 46/46/46
f 46/46/46 1/1/1 4/4/4
f 9/9/9 25/25/25 24/24/24
f 24/24/24 8/8/8 9/9/9
f 82/82/82 138/138/138 136/136/136
f 39/39/39 70/70/70 114/114/114
f 114/114/114 99/99/99 39/39/39
f 4/4/4 90/90/90 100/100/100
f 100/100/100 47/47/47 4/4/4
f 45/45/45 74/74/74 30/30/30
f 30/30/30 2/2/2 45/45/45
f 23/23/23 73/73/73 43/43/43
f 43/43/43 7/7/7 23/23/23
f 22/22/22 26/26/26 19/19/19
f 19/19/19 16/16/16 22/22/22
f 35/35/35 41/41/41 27/27/27
f 27/27/27 33/33/33 35/35/35
f 25/25/25 9/9/9 81/81/81
f 81/81/81 137/137/137 25/25/25
f 25/25/25 26/26/26 22/22/22
f 22/22/22 24/24/24 25/25/25
f 78/78/78 50/50/50 11/11/11
f 11/11/11 31/31/31 78/78/78
f 64/64/64 69/69/69 111/111/111
f 111/111/111 105/105/105 64/64/64
f 77/77/77 79/79/79 75/75/75
f 75/75/75 72/72/72 77/77/77
f 75/75/75 79/79/79 32/32/32
f 32/32/32 28/28/28 75/75/75
f 21/21/21 76/76/76 73/73/73
f 73/73/73 23/23/23 21/21/21
f 73/73/73 74/74/74 45/45/45
f 45/45/45 43/43/43 73/73/73
f 52/52/52 79/79/79 77/77/77
f 77/77/77 53/53/53 52/52/52
f 17/17/17 54/54/54 76/76/76
f 76/76/76 21/21/21 17/17/17
f 20/20/20 84/84/84 104/104/104
f 104/104/104 59/59/59 20/20/20
f 14/14/14 88/88/88 95/95/95
f 95/95/95 36/36/36 14/14/14
f 47/47/47 100/100/100 139/139/139
f 139/139/139 48/48/48 47/47/47
f 132/132/132 114/114/114 70/70/70
f 70/70/70 118/118/118 132/132/132
f 10/10/10 48/48/48 139/139/139
f 139/139/139 80/80/80 10/10/10
f 115/115/115 65/65/65 109/109/109
f 109/109/109 133/133/133 115/115/115
f 67/67/67 71/71/71 42/42/42
f 42/42/42 37/37/37 67/67/67
f 38/38/38 96/96/96 112/112/112
f 112/112/112 68/68/68 38/38/38
f 15/15/15 61/61/61 106/106/106
f 106/106/106 87/87/87 15/15/15
f 65/65/65 60/60/60 103/103/103
f 103/103/103 109/109/109 65/65/65
f 19/19/19 26/26/26 93/93/93
f 93/93/93 85/85/85 19/19/19
f 5/5/5 40/40/40 97/97/97
f 97/97/97 89/89/89 5/5/5
f 108/108/108 102/102/102 83/83/83
f 83/83/83 92/92/92 108/108/108
f 25/25/25 137/137/137 93/93/93
f 93/93/93 26/26/26 25/25/25
f 57/57/57 62/62/62 51/51/51
f 51/51/51 56/56/56 57/57/57
f 49/49/49 61/61/61 15/15/15
f 15/15/15 12/12/12 49/49/49
f 47/47/47 48/48/48 44/44/44
f 44/44/44 46/46/46 47/47/47
f 44/44/44 48/48/48 10/10/10
f 10/10/10 6/6/6 44/44/44
f 29/29/29 40/40/40 5/5/5
f 5/5/5 3/3/3 29/29/29
f 101/101/101 113/113/113 131/131/131
f 131/131/131 138/138/138 101/101/101
f 136/136/136 134/134/134 108/108/108
f 108/108/108 92/92/92 136/136/136
f 113/113/113 101/101/101 91/91/91
f 91/91/91 98/98/98 113/113/113
f 107/107/107 110/110/110 94/94/94
f 94/94/94 86/86/86 107/107/107
f 14/14/14 36/36/36 34/34/34
f 34/34/34 13/13/13 14/14/14
f 20/20/20 59/59/59 55/55/55
f 55/55/55 18/18/18 20/20/20
f 136/136/136 151/151/151 135/135/135
f 115/115/115 133/133/133 150/150/150
f 150/150/150 119/119/119 115/115/115
f 119/119/119 150/150/150 148/148/148
f 148/148/148 122/122/122 119/119/119
f 122/122/122 148/148/148 147/147/147
f 147/147/147 123/123/123 122/122/122
f 123/123/123 147/147/147 145/145/145
f 145/145/145 126/126/126 123/123/123
f 126/126/126 145/145/145 142/142/142
f 142/142/142 127/127/127 126/126/126
f 127/127/127 142/142/142 141/141/141
f 141/141/141 129/129/129 127/127/127
f 129/129/129 141/141/141 132/132/132
f 132/132/132 118/118/118 129/129/129
f 117/117/117 71/71/71 67/67/67
f 153/153/153 159/159/159 152/152/152
f 152/152/152 154/154/154 153/153/153
f 158/158/158 156/156/156 157/157/157
f 157/157/157 155/155/155 158/158/158
f 152/152/152 159/159/159 162/162/162
f 162/162/162 163/163/163 152/152/152
f 163/163/163 162/162/162 161/161/161
f 161/161/161 164/164/164 163/163/163
f 164/164/164 161/161/161 160/160/160
f 160/160/160 165/165/165 164/164/164
f 165/165/165 160/160/160 158/158/158
f 158/158/158 155/155/155 165/165/165
f 166/166/166 171/171/171 178/178/178
f 178/178/178 167/167/167 166/166/166
f 170/170/170 179/179/179 185/185/185
f 185/185/185 172/172/172 170/170/170
f 172/172/172 185/185/185 184/184/184
f 184/184/184 173/173/173 172/172/172
f 173/173/173 184/184/184 183/183/183
f 183/183/183 174/174/174 173/173/173
f 174/174/174 183/183/183 182/182/182
f 182/182/182 175/175/175 174/174/174
f 175/175/175 182/182/182 181/181/181
f 181/181/181 176/176/176 175/175/175
f 176/176/176 181/181/181 180/180/180
f 180/180/180 177/177/177 176/176/176
f 177/177/177 180/180/180 178/178/178
f 178/178/178 171/171/171 177/177/177
f 170/170/170 169/169/169 168/168/168
f 168/168/168 179/179/179 170/170/170
f 190/190/190 189/189/189 188/188/188
f 188/188/188 191/191/191 190/190/190
f 194/194/194 193/193/193 192/192/192
f 192/192/192 195/195/195 194/194/194
f 198/198/198 197/197/197 196/196/196
f 196/196/196 199/199/199 198/198/198
f 186/186/186 200/200/200 201/201/201
f 201/201/201 187/187/187 186/186/186
f 198/198/198 199/199/199 207/207/207
f 207/207/207 208/208/208 198/198/198
f 208/208/208 207/207/207 206/206/206
f 206/206/206 209/209/209 208/208/208
f 209/209/209 206/206/206 205/205/205
f 205/205/205 210/210/210 209/209/209
f 210/210/210 205/205/205 204/204/204
f 204/204/204 211/211/211 210/210/210
f 211/211/211 204/204/204 203/203/203
f 203/203/203 212/212/212 211/211/211
f 212/212/212 203/203/203 202/202/202
f 202/202/202 213/213/213 212/212/212
f 213/213/213 202/202/202 201/201/201
f 201/201/201 200/200/200 213/213/213
f 131/131/131 140/140/140 138/138/138
f 140/140/140 143/143/143 138/138/138
f 143/143/143 144/144/144 138/138/138
f 144/144/144 146/146/146 136/136/136
f 136/136/136 138/138/138 144/144/144
f 149/149/149 151/151/151 136/136/136
f 146/146/146 149/149/149 136/136/136
f 66/66/66 116/116/116 67/67/67
f 116/116/116 120/120/120 67/67/67
f 120/120/120 121/121/121 67/67/67
f 121/121/121 124/124/124 67/67/67
f 124/124/124 125/125/125 67/67/67
f 125/125/125 128/128/128 67/67/67
f 128/128/128 130/130/130 67/67/67
f 130/130/130 117/117/117 67/67/67

