# https://github.com/mikedh/trimesh
mtllib material.mtl
usemtl material_0
v -1.00000000 0.00000000 1.00000000
v -1.00000000 0.00000000 1.00000000
v -1.00000000 0.00000000 1.00000000
v -1.00000000 0.07000000 1.00000000
v -1.00000000 0.07000000 1.00000000
v -1.00000000 0.00000000 -1.00000000
v -1.00000000 0.00000000 -1.00000000
v -1.00000000 0.00000000 -1.00000000
v -1.00000000 0.07000000 -1.00000000
v -1.00000000 0.07000000 -1.00000000
v 1.00000000 0.00000000 1.00000000
v 1.00000000 0.00000000 1.00000000
v 1.00000000 0.00000000 1.00000000
v 1.00000000 0.07000000 1.00000000
v 1.00000000 0.07000000 1.00000000
v 1.00000000 0.00000000 -1.00000000
v 1.00000000 0.00000000 -1.00000000
v 1.00000000 0.00000000 -1.00000000
v 1.00000000 0.07000000 -1.00000000
v 1.00000000 0.07000000 -1.00000000
v 0.90000000 0.00000000 -1.00000000
v 0.90000000 0.00000000 -1.00000000
v 0.90000000 0.00000000 -1.00000000
v 0.90000000 0.00000000 -1.00000000
v -0.90000000 0.00000000 -1.00000000
v -0.90000000 0.00000000 -1.00000000
v -0.90000000 0.00000000 -1.00000000
v -0.90000000 0.00000000 -1.00000000
v -0.90000000 0.07000000 -1.00000000
v -0.90000000 0.07000000 -1.00000000
v -0.90000000 0.07000000 -1.00000000
v -0.90000000 0.07000000 -1.00000000
v 0.90000000 0.07000000 -1.00000000
v 0.90000000 0.07000000 -1.00000000
v 0.90000000 0.07000000 -1.00000000
v 0.90000000 0.07000000 -1.00000000
v -0.90000000 0.00000000 1.00000000
v -0.90000000 0.00000000 1.00000000
v -0.90000000 0.00000000 1.00000000
v -0.90000000 0.00000000 1.00000000
v 0.90000000 0.00000000 1.00000000
v 0.90000000 0.00000000 1.00000000
v 0.90000000 0.00000000 1.00000000
v 0.90000000 0.00000000 1.00000000
v 0.90000000 0.07000000 1.00000000
v 0.90000000 0.07000000 1.00000000
v 0.90000000 0.07000000 1.00000000
v 0.90000000 0.07000000 1.00000000
v -0.90000000 0.07000000 1.00000000
v -0.90000000 0.07000000 1.00000000
v -0.90000000 0.07000000 1.00000000
v -0.90000000 0.07000000 1.00000000
v -1.00000000 0.00000000 -0.90000000
v -1.00000000 0.00000000 -0.90000000
v -1.00000000 0.00000000 0.90000000
v -1.00000000 0.00000000 0.90000000
v -1.00000000 0.07000000 0.90000000
v -1.00000000 0.07000000 -0.90000000
v 1.00000000 0.00000000 0.90000000
v 1.00000000 0.00000000 0.90000000
v 1.00000000 0.00000000 0.90000000
v 1.00000000 0.00000000 0.90000000
v 1.00000000 0.00000000 -0.90000000
v 1.00000000 0.00000000 -0.90000000
v 1.00000000 0.00000000 -0.90000000
v 1.00000000 0.00000000 -0.90000000
v 1.00000000 0.07000000 -0.90000000
v 1.00000000 0.07000000 -0.90000000
v 1.00000000 0.07000000 -0.90000000
v 1.00000000 0.07000000 -0.90000000
v 1.00000000 0.07000000 0.90000000
v 1.00000000 0.07000000 0.90000000
v 1.00000000 0.07000000 0.90000000
v 1.00000000 0.07000000 0.90000000
v 0.90000000 0.07000000 -0.90000000
v 0.90000000 0.07000000 -0.90000000
v 0.90000000 0.07000000 -0.90000000
v 0.90000000 0.07000000 0.90000000
v 0.90000000 0.07000000 0.90000000
v 0.90000000 0.07000000 0.90000000
v -0.90000000 0.07000000 -0.90000000
v -0.90000000 0.07000000 -0.90000000
v -0.90000000 0.07000000 0.90000000
v -0.90000000 0.07000000 0.90000000
v -0.90000000 0.00000000 -0.90000000
v -0.90000000 0.00000000 -0.90000000
v -0.90000000 0.00000000 0.90000000
v -0.90000000 0.00000000 0.90000000
v 0.90000000 0.00000000 -0.90000000
v 0.90000000 0.00000000 -0.90000000
v 0.90000000 0.00000000 0.90000000
v 0.90000000 0.00000000 0.90000000
v -1.00000000 0.10000000 -1.00000000
v -1.00000000 0.10000000 -1.00000000
v -1.00000000 0.10000000 -1.00000000
v 1.00000000 0.10000000 -1.00000000
v 1.00000000 0.10000000 -1.00000000
v 1.00000000 0.10000000 -1.00000000
v 1.00000000 0.10000000 1.00000000
v 1.00000000 0.10000000 1.00000000
v 1.00000000 0.10000000 1.00000000
v -1.00000000 0.10000000 1.00000000
v -1.00000000 0.10000000 1.00000000
v -1.00000000 0.10000000 1.00000000
v -0.93000000 0.10000000 -1.00000000
v -0.93000000 0.10000000 -1.00000000
v -0.93000000 0.10000000 -1.00000000
v 0.93000000 0.10000000 -1.00000000
v 0.93000000 0.10000000 -1.00000000
v 0.93000000 0.10000000 -1.00000000
v 0.93000000 0.10000000 1.00000000
v 0.93000000 0.10000000 1.00000000
v 0.93000000 0.10000000 1.00000000
v -0.93000000 0.10000000 1.00000000
v -0.93000000 0.10000000 1.00000000
v -0.93000000 0.10000000 1.00000000
v -1.00000000 0.10000000 0.90000000
v -1.00000000 0.10000000 0.90000000
v -1.00000000 0.10000000 -0.90000000
v -1.00000000 0.10000000 -0.90000000
v 1.00000000 0.10000000 -0.93000000
v 1.00000000 0.10000000 -0.93000000
v 1.00000000 0.10000000 -0.93000000
v 1.00000000 0.10000000 0.93000000
v 1.00000000 0.10000000 0.93000000
v 1.00000000 0.10000000 0.93000000
v 0.93000000 0.10000000 -0.93000000
v 0.93000000 0.10000000 -0.93000000
v 0.93000000 0.10000000 -0.93000000
v 0.93000000 0.10000000 0.93000000
v 0.93000000 0.10000000 0.93000000
v 0.93000000 0.10000000 0.93000000
v -0.93000000 0.10000000 -0.90000000
v -0.93000000 0.10000000 -0.90000000
v -0.93000000 0.10000000 0.90000000
v -0.93000000 0.10000000 0.90000000
v -0.62000000 0.07300000 -1.00000000
v -0.58000000 0.07300000 -1.00000000
v -0.58000000 0.07300000 1.00000000
v -0.62000000 0.07300000 1.00000000
v 0.87241700 0.07300000 -0.58000000
v 1.00000000 0.07300000 -0.62000000
v 1.00000000 0.07300000 -0.58000000
v 0.58000000 0.07300000 -0.87241700
v 0.62000000 0.07300000 -1.00000000
v 0.58000000 0.07300000 -1.00000000
v 0.62000000 0.07300000 -0.90000000
v 0.90000000 0.07300000 -0.62000000
v 0.63518200 0.07300000 -0.78671700
v 0.69372600 0.07300000 -0.69372600
v 0.78671700 0.07300000 -0.63518300
v 0.76051400 0.07300000 -0.60225900
v 0.66564700 0.07300000 -0.66564700
v 0.60225900 0.07300000 -0.76051400
v -0.02000000 0.07300000 -0.90000000
v 0.02000000 0.07300000 -0.90000000
v 0.02000000 0.07300000 -0.70000000
v -0.02000000 0.07300000 -0.70000000
v -0.02000000 0.07300000 -0.50000000
v 0.02000000 0.07300000 -0.50000000
v 0.02000000 0.07300000 -0.30000000
v -0.02000000 0.07300000 -0.30000000
v -0.02000000 0.07300000 -0.10000000
v 0.02000000 0.07300000 -0.10000000
v 0.02000000 0.07300000 0.10000000
v -0.02000000 0.07300000 0.10000000
v -0.02000000 0.07300000 0.30000000
v 0.02000000 0.07300000 0.30000000
v 0.02000000 0.07300000 0.50000000
v -0.02000000 0.07300000 0.50000000
v -0.02000000 0.07300000 0.70000000
v 0.02000000 0.07300000 0.70000000
v 0.02000000 0.07300000 0.90000000
v -0.02000000 0.07300000 0.90000000
v 0.90000000 0.07300000 -0.02000000
v 0.90000000 0.07300000 0.02000000
v 0.58000000 0.07300000 -0.60000000
v 0.62000000 0.07300000 -0.60000000
v 0.58000000 0.07300000 0.02000000
v 0.62000000 0.07300000 -0.02000000
v 0.58000000 0.07300000 0.87241700
v 0.62000000 0.07300000 1.00000000
v 0.58000000 0.07300000 1.00000000
v 0.87241700 0.07300000 0.58000000
v 1.00000000 0.07300000 0.62000000
v 1.00000000 0.07300000 0.58000000
v 0.90000000 0.07300000 0.62000000
v 0.62000000 0.07300000 0.90000000
v 0.78671700 0.07300000 0.63518200
v 0.69372600 0.07300000 0.69372600
v 0.63518200 0.07300000 0.78671700
v 0.60225900 0.07300000 0.76051400
v 0.66564700 0.07300000 0.66564700
v 0.76051400 0.07300000 0.60225900
v 0.58000000 0.07300000 0.10000000
v 0.62000000 0.07300000 0.10000000
v 0.62000000 0.07300000 0.20000000
v 0.58000000 0.07300000 0.20000000
v 0.58000000 0.07300000 0.30000000
v 0.62000000 0.07300000 0.30000000
v 0.62000000 0.07300000 0.40000000
v 0.58000000 0.07300000 0.40000000
v 0.58000000 0.07300000 0.60000000
v 0.62000000 0.07300000 0.60000000
v 0.62000000 0.07300000 0.50000000
v 0.58000000 0.07300000 0.50000000
vn -1.00000000 0.00000000 0.00000000
vn 0.00000000 0.00000000 1.00000000
vn 0.00000000 -1.00000000 0.00000000
vn -1.00000000 0.00000000 0.00000000
vn 0.00000000 0.00000000 1.00000000
vn 0.00000000 -1.00000000 0.00000000
vn -1.00000000 0.00000000 0.00000000
vn 0.00000000 0.00000000 -1.00000000
vn 0.00000000 0.00000000 -1.00000000
vn -1.00000000 0.00000000 0.00000000
vn 0.00000000 -1.00000000 0.00000000
vn 0.00000000 0.00000000 1.00000000
vn 1.00000000 0.00000000 0.00000000
vn 1.00000000 0.00000000 0.00000000
vn 0.00000000 0.00000000 1.00000000
vn 0.00000000 0.00000000 -1.00000000
vn 0.00000000 -1.00000000 0.00000000
vn 1.00000000 0.00000000 0.00000000
vn 1.00000000 0.00000000 0.00000000
vn 0.00000000 0.00000000 -1.00000000
vn 0.00000000 0.00000000 -1.00000000
vn 0.00000000 0.00000000 -1.00000000
vn 0.00000000 -1.00000000 0.00000000
vn 0.00000000 -1.00000000 0.00000000
vn 0.00000000 -1.00000000 0.00000000
vn 0.00000000 -1.00000000 0.00000000
vn 0.00000000 0.00000000 -1.00000000
vn 0.00000000 0.00000000 -1.00000000
vn 0.00000000 1.00000000 0.00000000
vn 0.00000000 0.00000000 -1.00000000
vn 0.00000000 0.00000000 -1.00000000
vn 0.70710678 0.70710678 0.00000000
vn 0.00000000 0.00000000 -1.00000000
vn 0.00000000 0.00000000 -1.00000000
vn -0.70710678 0.70710678 0.00000000
vn 0.00000000 1.00000000 0.00000000
vn 0.00000000 0.00000000 1.00000000
vn 0.00000000 0.00000000 1.00000000
vn 0.00000000 -1.00000000 0.00000000
vn 0.00000000 -1.00000000 0.00000000
vn 0.00000000 -1.00000000 0.00000000
vn 0.00000000 -1.00000000 0.00000000
vn 0.00000000 0.00000000 1.00000000
vn 0.00000000 0.00000000 1.00000000
vn 0.00000000 0.00000000 1.00000000
vn 0.00000000 0.00000000 1.00000000
vn 0.00000000 1.00000000 0.00000000
vn -0.70710678 0.70710678 0.00000000
vn 0.00000000 0.00000000 1.00000000
vn 0.00000000 0.00000000 1.00000000
vn 0.70710678 0.70710678 0.00000000
vn 0.00000000 1.00000000 0.00000000
vn -1.00000000 0.00000000 0.00000000
vn 0.00000000 -1.00000000 0.00000000
vn 0.00000000 -1.00000000 0.00000000
vn -1.00000000 0.00000000 0.00000000
vn -1.00000000 0.00000000 0.00000000
vn -1.00000000 0.00000000 0.00000000
vn 1.00000000 0.00000000 0.00000000
vn 1.00000000 0.00000000 0.00000000
vn 0.00000000 -1.00000000 0.00000000
vn 0.00000000 -1.00000000 0.00000000
vn 0.00000000 -1.00000000 0.00000000
vn 0.00000000 -1.00000000 0.00000000
vn 1.00000000 0.00000000 0.00000000
vn 1.00000000 0.00000000 0.00000000
vn 0.00000000 1.00000000 0.00000000
vn 0.00000000 0.70710678 0.70710678
vn 1.00000000 0.00000000 0.00000000
vn 1.00000000 0.00000000 0.00000000
vn 1.00000000 0.00000000 0.00000000
vn 1.00000000 0.00000000 0.00000000
vn 0.00000000 1.00000000 0.00000000
vn 0.00000000 0.70710678 -0.70710678
vn -0.70710678 0.70710678 0.00000000
vn 0.00000000 0.70710678 0.70710678
vn 0.00000000 1.00000000 0.00000000
vn 0.00000000 1.00000000 0.00000000
vn -0.70710678 0.70710678 0.00000000
vn 0.00000000 0.70710678 -0.70710678
vn 0.00000000 1.00000000 0.00000000
vn 0.70710678 0.70710678 0.00000000
vn 0.70710678 0.70710678 0.00000000
vn 0.00000000 1.00000000 0.00000000
vn 0.00000000 -1.00000000 0.00000000
vn 0.00000000 -1.00000000 0.00000000
vn 0.00000000 -1.00000000 0.00000000
vn 0.00000000 -1.00000000 0.00000000
vn 0.00000000 -1.00000000 0.00000000
vn 0.00000000 -1.00000000 0.00000000
vn 0.00000000 -1.00000000 0.00000000
vn 0.00000000 -1.00000000 0.00000000
vn 0.00000000 0.00000000 -1.00000000
vn -1.00000000 0.00000000 0.00000000
vn 0.00000000 1.00000000 0.00000000
vn 1.00000000 0.00000000 0.00000000
vn 0.00000000 0.00000000 -1.00000000
vn 0.00000000 1.00000000 0.00000000
vn 1.00000000 0.00000000 0.00000000
vn 0.00000000 0.00000000 1.00000000
vn 0.00000000 1.00000000 0.00000000
vn 0.00000000 0.00000000 1.00000000
vn -1.00000000 0.00000000 0.00000000
vn 0.00000000 1.00000000 0.00000000
vn 0.00000000 1.00000000 0.00000000
vn 0.00000000 0.00000000 -1.00000000
vn 0.70710678 0.70710678 0.00000000
vn 0.00000000 0.00000000 -1.00000000
vn -0.70710678 0.70710678 0.00000000
vn 0.00000000 1.00000000 0.00000000
vn 0.00000000 1.00000000 0.00000000
vn 0.00000000 0.00000000 1.00000000
vn -0.70710678 0.70710678 0.00000000
vn 0.00000000 1.00000000 0.00000000
vn 0.00000000 0.00000000 1.00000000
vn 0.70710678 0.70710678 0.00000000
vn 0.00000000 1.00000000 0.00000000
vn -1.00000000 0.00000000 0.00000000
vn -1.00000000 0.00000000 0.00000000
vn 0.00000000 1.00000000 0.00000000
vn 0.00000000 1.00000000 0.00000000
vn 1.00000000 0.00000000 0.00000000
vn 0.00000000 0.70710678 0.70710678
vn 1.00000000 0.00000000 0.00000000
vn 0.00000000 1.00000000 0.00000000
vn 0.00000000 0.70710678 -0.70710678
vn 0.00000000 1.00000000 0.00000000
vn 0.00000000 0.70710678 0.70710678
vn -0.70710678 0.70710678 0.00000000
vn 0.00000000 1.00000000 0.00000000
vn 0.00000000 0.70710678 -0.70710678
vn -0.70710678 0.70710678 0.00000000
vn 0.70710678 0.70710678 0.00000000
vn 0.00000000 1.00000000 0.00000000
vn 0.00000000 1.00000000 0.00000000
vn 0.70710678 0.70710678 0.00000000
vn 0.00000000 1.00000000 0.00000000
vn 0.00000000 1.00000000 0.00000000
vn 0.00000000 1.00000000 0.00000000
vn 0.00000000 1.00000000 0.00000000
vn 0.00000000 1.00000000 0.00000000
vn 0.00000000 1.00000000 0.00000000
vn 0.00000000 1.00000000 0.00000000
vn 0.00000000 1.00000000 0.00000000
vn 0.00000000 1.00000000 0.00000000
vn 0.00000000 1.00000000 0.00000000
vn 0.00000000 1.00000000 0.00000000
vn 0.00000000 1.00000000 0.00000000
vn 0.00000000 1.00000000 0.00000000
vn 0.00000000 1.00000000 0.00000000
vn 0.00000000 1.00000000 0.00000000
vn 0.00000000 1.00000000 0.00000000
vn 0.00000000 1.00000000 0.00000000
vn 0.00000000 1.00000000 0.00000000
vn 0.00000000 1.00000000 0.00000000
vn 0.00000000 1.00000000 0.00000000
vn 0.00000000 1.00000000 0.00000000
vn 0.00000000 1.00000000 0.00000000
vn 0.00000000 1.00000000 0.00000000
vn 0.00000000 1.00000000 0.00000000
vn 0.00000000 1.00000000 0.00000000
vn 0.00000000 1.00000000 0.00000000
vn 0.00000000 1.00000000 0.00000000
vn 0.00000000 1.00000000 0.00000000
vn 0.00000000 1.00000000 0.00000000
vn 0.00000000 1.00000000 0.00000000
vn 0.00000000 1.00000000 0.00000000
vn 0.00000000 1.00000000 0.00000000
vn 0.00000000 1.00000000 0.00000000
vn 0.00000000 1.00000000 0.00000000
vn 0.00000000 1.00000000 0.00000000
vn 0.00000000 1.00000000 0.00000000
vn 0.00000000 1.00000000 0.00000000
vn 0.00000000 1.00000000 0.00000000
vn 0.00000000 1.00000000 0.00000000
vn 0.00000000 1.00000000 0.00000000
vn 0.00000000 1.00000000 0.00000000
vn 0.00000000 1.00000000 0.00000000
vn 0.00000000 1.00000000 0.00000000
vn 0.00000000 1.00000000 0.00000000
vn 0.00000000 1.00000000 0.00000000
vn 0.00000000 1.00000000 0.00000000
vn 0.00000000 1.00000000 0.00000000
vn 0.00000000 1.00000000 0.00000000
vn 0.00000000 1.00000000 0.00000000
vn 0.00000000 1.00000000 0.00000000
vn 0.00000000 1.00000000 0.00000000
vn 0.00000000 1.00000000 0.00000000
vn 0.00000000 1.00000000 0.00000000
vn 0.00000000 1.00000000 0.00000000
vn 0.00000000 1.00000000 0.00000000
vn 0.00000000 1.00000000 0.00000000
vn 0.00000000 1.00000000 0.00000000
vn 0.00000000 1.00000000 0.00000000
vn 0.00000000 1.00000000 0.00000000
vn 0.00000000 1.00000000 0.00000000
vn 0.00000000 1.00000000 0.00000000
vn 0.00000000 1.00000000 0.00000000
vn 0.00000000 1.00000000 0.00000000
vn 0.00000000 1.00000000 0.00000000
vn 0.00000000 1.00000000 0.00000000
vn 0.00000000 1.00000000 0.00000000
vn 0.00000000 1.00000000 0.00000000
vn 0.00000000 1.00000000 0.00000000
vn 0.00000000 1.00000000 0.00000000
vn 0.00000000 1.00000000 0.00000000
vt 0.30869400 0.81171700
vt 0.30869400 0.81171700
vt 0.30869400 0.81171700
vt 0.30869400 0.82577000
vt 0.30869400 0.82577000
vt 0.30869400 0.81171700
vt 0.30869400 0.81171700
vt 0.30869400 0.81171700
vt 0.30869400 0.82577000
vt 0.30869400 0.82577000
vt 0.34550400 0.81171700
vt 0.34550400 0.81171700
vt 0.34550400 0.81171700
vt 0.34550400 0.82577000
vt 0.34550400 0.82577000
vt 0.34550400 0.81171700
vt 0.34550400 0.81171700
vt 0.34550400 0.81171700
vt 0.34550400 0.82577000
vt 0.34550400 0.82577000
vt 0.34182300 0.78046700
vt 0.34182300 0.81171700
vt 0.34182300 0.81171700
vt 0.34182300 0.78046700
vt 0.31237500 0.81171700
vt 0.31237500 0.78046700
vt 0.31237500 0.81171700
vt 0.31237500 0.78046700
vt 0.31237500 0.79115300
vt 0.31237500 0.79115300
vt 0.31237500 0.82577000
vt 0.31237500 0.82577000
vt 0.34182300 0.79115300
vt 0.34182300 0.82577000
vt 0.34182300 0.82577000
vt 0.34182300 0.79115300
vt 0.31237500 0.81171700
vt 0.31237500 0.78046700
vt 0.31237500 0.81171700
vt 0.31237500 0.78046700
vt 0.34182300 0.81171700
vt 0.34182300 0.78046700
vt 0.34182300 0.78046700
vt 0.34182300 0.81171700
vt 0.34182300 0.79115300
vt 0.34182300 0.82577000
vt 0.34182300 0.79115300
vt 0.34182300 0.82577000
vt 0.31237500 0.82577000
vt 0.31237500 0.79115300
vt 0.31237500 0.82577000
vt 0.31237500 0.79115300
vt 0.30869400 0.81171700
vt 0.30869400 0.81171700
vt 0.30869400 0.81171700
vt 0.30869400 0.81171700
vt 0.30869400 0.82577000
vt 0.30869400 0.82577000
vt 0.34550400 0.81171700
vt 0.34550400 0.78046700
vt 0.34550400 0.78046700
vt 0.34550400 0.81171700
vt 0.34550400 0.81171700
vt 0.34550400 0.78046700
vt 0.34550400 0.78046700
vt 0.34550400 0.81171700
vt 0.34550400 0.79115300
vt 0.34550400 0.82577000
vt 0.34550400 0.79115300
vt 0.34550400 0.82577000
vt 0.34550400 0.79115300
vt 0.34550400 0.82577000
vt 0.34550400 0.79115300
vt 0.34550400 0.82577000
vt 0.34182300 0.82577000
vt 0.34182300 0.82577000
vt 0.34182300 0.79115300
vt 0.34182300 0.79115300
vt 0.34182300 0.82577000
vt 0.34182300 0.82577000
vt 0.31237500 0.79115300
vt 0.31237500 0.82577000
vt 0.31237500 0.82577000
vt 0.31237500 0.79115300
vt 0.31237500 0.81171700
vt 0.31237500 0.78046700
vt 0.31237500 0.78046700
vt 0.31237500 0.81171700
vt 0.34182300 0.81171700
vt 0.34182300 0.78046700
vt 0.34182300 0.78046700
vt 0.34182300 0.81171700
vt 0.30869400 0.83203100
vt 0.30869400 0.83203100
vt 0.30869400 0.86328100
vt 0.34550400 0.83203100
vt 0.34550400 0.83203100
vt 0.34550400 0.86328100
vt 0.34550400 0.83203100
vt 0.34550400 0.83203100
vt 0.34550400 0.86328100
vt 0.30869400 0.83203100
vt 0.30869400 0.83203100
vt 0.30869400 0.86328100
vt 0.31237500 0.86328100
vt 0.31237500 0.83203100
vt 0.31237500 0.83203100
vt 0.34182300 0.83203100
vt 0.34182300 0.83203100
vt 0.34182300 0.86328100
vt 0.34182300 0.86328100
vt 0.34182300 0.83203100
vt 0.34182300 0.83203100
vt 0.31237500 0.86328100
vt 0.31237500 0.83203100
vt 0.31237500 0.83203100
vt 0.30869400 0.86328100
vt 0.30869400 0.83203100
vt 0.30869400 0.83203100
vt 0.30869400 0.86328100
vt 0.34550400 0.86328100
vt 0.34550400 0.83203100
vt 0.34550400 0.83203100
vt 0.34550400 0.83203100
vt 0.34550400 0.86328100
vt 0.34550400 0.83203100
vt 0.34182300 0.86328100
vt 0.34182300 0.83203100
vt 0.34182300 0.83203100
vt 0.34182300 0.86328100
vt 0.34182300 0.83203100
vt 0.34182300 0.83203100
vt 0.31237500 0.83203100
vt 0.31237500 0.86328100
vt 0.31237500 0.86328100
vt 0.31237500 0.83203100
vt 0.43737500 0.66615300
vt 0.46682300 0.66615300
vt 0.46682300 0.66615300
vt 0.43737500 0.66615300
vt 0.43737500 0.66615300
vt 0.46682300 0.66615300
vt 0.43737500 0.66615300
vt 0.43737500 0.66615300
vt 0.46682300 0.66615300
vt 0.43737500 0.66615300
vt 0.46682300 0.66615300
vt 0.46682300 0.66615300
vt 0.48754100 0.66615300
vt 0.46682300 0.66615300
vt 0.48754100 0.66615300
vt 0.45873600 0.66615300
vt 0.46682300 0.66615300
vt 0.45873600 0.66615300
vt 0.18737500 0.91615300
vt 0.21682300 0.91615300
vt 0.21682300 0.91615300
vt 0.18737500 0.91615300
vt 0.18737500 0.91615300
vt 0.21682300 0.91615300
vt 0.21682300 0.91615300
vt 0.18737500 0.91615300
vt 0.18737500 0.91615300
vt 0.21682300 0.91615300
vt 0.21682300 0.91615300
vt 0.18737500 0.91615300
vt 0.18737500 0.91615300
vt 0.21682300 0.91615300
vt 0.21682300 0.91615300
vt 0.18737500 0.91615300
vt 0.18737500 0.91615300
vt 0.21682300 0.91615300
vt 0.21682300 0.91615300
vt 0.18737500 0.91615300
vt 0.18737500 0.91615300
vt 0.21682300 0.91615300
vt 0.18737500 0.91615300
vt 0.21682300 0.91615300
vt 0.18737500 0.91615300
vt 0.21682300 0.91615300
vt 0.43737500 0.66615300
vt 0.46682300 0.66615300
vt 0.43737500 0.66615300
vt 0.43737500 0.66615300
vt 0.46682300 0.66615300
vt 0.43737500 0.66615300
vt 0.46682300 0.66615300
vt 0.46682300 0.66615300
vt 0.48754100 0.66615300
vt 0.46682300 0.66615300
vt 0.48754100 0.66615300
vt 0.45873600 0.66615300
vt 0.46682300 0.66615300
vt 0.45873600 0.66615300
vt 0.18737500 0.91615300
vt 0.21682300 0.91615300
vt 0.21682300 0.91615300
vt 0.18737500 0.91615300
vt 0.18737500 0.91615300
vt 0.21682300 0.91615300
vt 0.21682300 0.91615300
vt 0.18737500 0.91615300
vt 0.18737500 0.91615300
vt 0.21682300 0.91615300
vt 0.21682300 0.91615300
vt 0.18737500 0.91615300
f 110/110/110 127/127/127 121/121/121
f 76/76/76 68/68/68 123/123/123
f 4/4/4 57/57/57 56/56/56
f 9/9/9 31/31/31 27/27/27
f 15/15/15 46/46/46 44/44/44
f 5/5/5 49/49/49 115/115/115
f 19/19/19 70/70/70 66/66/66
f 25/25/25 85/85/85 54/54/54
f 37/37/37 49/49/49 5/5/5
f 45/45/45 50/50/50 38/38/38
f 22/22/22 34/34/34 20/20/20
f 30/30/30 33/33/33 21/21/21
f 61/61/61 91/91/91 90/90/90
f 92/92/92 62/62/62 11/11/11
f 20/20/20 34/34/34 108/108/108
f 87/87/87 91/91/91 42/42/42
f 90/90/90 86/86/86 26/26/26
f 85/85/85 88/88/88 55/55/55
f 55/55/55 88/88/88 39/39/39
f 74/74/74 80/80/80 131/131/131
f 19/19/19 96/96/96 122/122/122
f 15/15/15 100/100/100 112/112/112
f 48/48/48 113/113/113 132/132/132
f 91/91/91 87/87/87 86/86/86
f 57/57/57 118/118/118 119/119/119
f 78/78/78 84/84/84 52/52/52
f 81/81/81 77/77/77 36/36/36
f 10/10/10 58/58/58 119/119/119
f 77/77/77 78/78/78 73/73/73
f 51/51/51 83/83/83 136/136/136
f 84/84/84 78/78/78 77/77/77
f 14/14/14 72/72/72 124/124/124
f 95/95/95 120/120/120 134/134/134
f 4/4/4 103/103/103 118/118/118
f 82/82/82 133/133/133 136/136/136
f 69/69/69 71/71/71 60/60/60
f 59/59/59 72/72/72 14/14/14
f 57/57/57 58/58/58 53/53/53
f 53/53/53 58/58/58 10/10/10
f 125/125/125 130/130/130 111/111/111
f 82/82/82 32/32/32 107/107/107
f 117/117/117 135/135/135 134/134/134
f 135/135/135 117/117/117 104/104/104
f 35/35/35 75/75/75 129/129/129
f 17/17/17 63/63/63 89/89/89
f 31/31/31 9/9/9 93/93/93
f 139/139/139 138/138/138 137/137/137
f 142/142/142 148/148/148 141/141/141
f 147/147/147 145/145/145 146/146/146
f 141/141/141 148/148/148 151/151/151
f 152/152/152 151/151/151 150/150/150
f 153/153/153 150/150/150 149/149/149
f 154/154/154 149/149/149 147/147/147
f 157/157/157 156/156/156 155/155/155
f 161/161/161 160/160/160 159/159/159
f 165/165/165 164/164/164 163/163/163
f 169/169/169 168/168/168 167/167/167
f 173/173/173 172/172/172 171/171/171
f 177/177/177 179/179/179 180/180/180
f 179/179/179 176/176/176 175/175/175
f 182/182/182 188/188/188 181/181/181
f 187/187/187 185/185/185 186/186/186
f 181/181/181 188/188/188 191/191/191
f 192/192/192 191/191/191 190/190/190
f 193/193/193 190/190/190 189/189/189
f 194/194/194 189/189/189 187/187/187
f 197/197/197 196/196/196 195/195/195
f 201/201/201 200/200/200 199/199/199
f 204/204/204 205/205/205 206/206/206
f 121/121/121 98/98/98 110/110/110
f 123/123/123 128/128/128 76/76/76
f 56/56/56 1/1/1 4/4/4
f 27/27/27 8/8/8 9/9/9
f 44/44/44 12/12/12 15/15/15
f 115/115/115 102/102/102 5/5/5
f 66/66/66 18/18/18 19/19/19
f 54/54/54 6/6/6 25/25/25
f 5/5/5 2/2/2 37/37/37
f 38/38/38 43/43/43 45/45/45
f 20/20/20 16/16/16 22/22/22
f 21/21/21 28/28/28 30/30/30
f 90/90/90 64/64/64 61/61/61
f 11/11/11 41/41/41 92/92/92
f 108/108/108 97/97/97 20/20/20
f 42/42/42 40/40/40 87/87/87
f 26/26/26 24/24/24 90/90/90
f 55/55/55 54/54/54 85/85/85
f 39/39/39 3/3/3 55/55/55
f 131/131/131 126/126/126 74/74/74
f 122/122/122 70/70/70 19/19/19
f 112/112/112 46/46/46 15/15/15
f 132/132/132 79/79/79 48/48/48
f 86/86/86 90/90/90 91/91/91
f 119/119/119 58/58/58 57/57/57
f 52/52/52 47/47/47 78/78/78
f 36/36/36 29/29/29 81/81/81
f 119/119/119 94/94/94 10/10/10
f 73/73/73 67/67/67 77/77/77
f 136/136/136 116/116/116 51/51/51
f 77/77/77 81/81/81 84/84/84
f 124/124/124 99/99/99 14/14/14
f 134/134/134 105/105/105 95/95/95
f 118/118/118 57/57/57 4/4/4
f 136/136/136 83/83/83 82/82/82
f 60/60/60 65/65/65 69/69/69
f 14/14/14 13/13/13 59/59/59
f 53/53/53 56/56/56 57/57/57
f 10/10/10 7/7/7 53/53/53
f 111/111/111 101/101/101 125/125/125
f 107/107/107 133/133/133 82/82/82
f 134/134/134 120/120/120 117/117/117
f 104/104/104 114/114/114 135/135/135
f 129/129/129 109/109/109 35/35/35
f 89/89/89 23/23/23 17/17/17
f 93/93/93 106/106/106 31/31/31
f 137/137/137 140/140/140 139/139/139
f 141/141/141 143/143/143 142/142/142
f 146/146/146 144/144/144 147/147/147
f 151/151/151 152/152/152 141/141/141
f 150/150/150 153/153/153 152/152/152
f 149/149/149 154/154/154 153/153/153
f 147/147/147 144/144/144 154/154/154
f 155/155/155 158/158/158 157/157/157
f 159/159/159 162/162/162 161/161/161
f 163/163/163 166/166/166 165/165/165
f 167/167/167 170/170/170 169/169/169
f 171/171/171 174/174/174 173/173/173
f 180/180/180 178/178/178 177/177/177
f 175/175/175 180/180/180 179/179/179
f 181/181/181 183/183/183 182/182/182
f 186/186/186 184/184/184 187/187/187
f 191/191/191 192/192/192 181/181/181
f 190/190/190 193/193/193 192/192/192
f 189/189/189 194/194/194 193/193/193
f 187/187/187 184/184/184 194/194/194
f 195/195/195 198/198/198 197/197/197
f 199/199/199 202/202/202 201/201/201
f 206/206/206 203/203/203 204/204/204

