# https://github.com/mikedh/trimesh
mtllib material.mtl
usemtl material_0
v -1.00000000 0.00000000 1.00000000
v -1.00000000 0.00000000 1.00000000
v -1.00000000 0.00000000 1.00000000
v -1.00000000 0.07000000 1.00000000
v -1.00000000 0.07000000 1.00000000
v -1.00000000 0.00000000 -1.00000000
v -1.00000000 0.00000000 -1.00000000
v -1.00000000 0.00000000 -1.00000000
v -1.00000000 0.07000000 -1.00000000
v -1.00000000 0.07000000 -1.00000000
v 1.00000000 0.00000000 1.00000000
v 1.00000000 0.00000000 1.00000000
v 1.00000000 0.00000000 1.00000000
v 1.00000000 0.07000000 1.00000000
v 1.00000000 0.07000000 1.00000000
v 1.00000000 0.00000000 -1.00000000
v 1.00000000 0.00000000 -1.00000000
v 1.00000000 0.00000000 -1.00000000
v 1.00000000 0.07000000 -1.00000000
v 1.00000000 0.07000000 -1.00000000
v 0.90000000 0.00000000 -1.00000000
v 0.90000000 0.00000000 -1.00000000
v -0.90000000 0.00000000 -1.00000000
v -0.90000000 0.00000000 -1.00000000
v -0.90000000 0.07000000 -1.00000000
v 0.90000000 0.07000000 -1.00000000
v -0.90000000 0.00000000 1.00000000
v -0.90000000 0.00000000 1.00000000
v -0.90000000 0.00000000 1.00000000
v -0.90000000 0.00000000 1.00000000
v 0.90000000 0.00000000 1.00000000
v 0.90000000 0.00000000 1.00000000
v 0.90000000 0.00000000 1.00000000
v 0.90000000 0.00000000 1.00000000
v 0.90000000 0.07000000 1.00000000
v 0.90000000 0.07000000 1.00000000
v 0.90000000 0.07000000 1.00000000
v 0.90000000 0.07000000 1.00000000
v -0.90000000 0.07000000 1.00000000
v -0.90000000 0.07000000 1.00000000
v -0.90000000 0.07000000 1.00000000
v -0.90000000 0.07000000 1.00000000
v -1.00000000 0.00000000 -0.90000000
v -1.00000000 0.00000000 -0.90000000
v -1.00000000 0.00000000 0.90000000
v -1.00000000 0.00000000 0.90000000
v -1.00000000 0.07000000 0.90000000
v -1.00000000 0.07000000 -0.90000000
v 1.00000000 0.00000000 0.90000000
v 1.00000000 0.00000000 0.90000000
v 1.00000000 0.00000000 0.90000000
v 1.00000000 0.00000000 0.90000000
v 1.00000000 0.00000000 -0.90000000
v 1.00000000 0.00000000 -0.90000000
v 1.00000000 0.00000000 -0.90000000
v 1.00000000 0.00000000 -0.90000000
v 1.00000000 0.07000000 -0.90000000
v 1.00000000 0.07000000 -0.90000000
v 1.00000000 0.07000000 -0.90000000
v 1.00000000 0.07000000 -0.90000000
v 1.00000000 0.07000000 0.90000000
v 1.00000000 0.07000000 0.90000000
v 1.00000000 0.07000000 0.90000000
v 1.00000000 0.07000000 0.90000000
v 0.90000000 0.07000000 -0.90000000
v 0.90000000 0.07000000 -0.90000000
v 0.90000000 0.07000000 0.90000000
v 0.90000000 0.07000000 0.90000000
v 0.90000000 0.07000000 0.90000000
v -0.90000000 0.07000000 0.90000000
v -0.90000000 0.07000000 0.90000000
v -0.90000000 0.00000000 -0.90000000
v -0.90000000 0.00000000 -0.90000000
v -0.90000000 0.00000000 0.90000000
v -0.90000000 0.00000000 0.90000000
v 0.90000000 0.00000000 -0.90000000
v 0.90000000 0.00000000 -0.90000000
v 0.90000000 0.00000000 0.90000000
v 0.90000000 0.00000000 0.90000000
v -1.00000000 0.10000000 -1.00000000
v -1.00000000 0.10000000 -1.00000000
v -1.00000000 0.10000000 -1.00000000
v 1.00000000 0.10000000 -1.00000000
v 1.00000000 0.10000000 -1.00000000
v 1.00000000 0.10000000 -1.00000000
v 1.00000000 0.10000000 1.00000000
v 1.00000000 0.10000000 1.00000000
v 1.00000000 0.10000000 1.00000000
v -1.00000000 0.10000000 1.00000000
v -1.00000000 0.10000000 1.00000000
v -1.00000000 0.10000000 1.00000000
v 0.90000000 0.10000000 -1.00000000
v 0.90000000 0.10000000 -1.00000000
v 0.93000000 0.10000000 1.00000000
v 0.93000000 0.10000000 1.00000000
v 0.93000000 0.10000000 1.00000000
v -0.93000000 0.10000000 1.00000000
v -0.93000000 0.10000000 1.00000000
v -0.93000000 0.10000000 1.00000000
v -1.00000000 0.10000000 0.90000000
v -1.00000000 0.10000000 0.90000000
v -1.00000000 0.10000000 -0.90000000
v -1.00000000 0.10000000 -0.90000000
v 1.00000000 0.10000000 -0.93000000
v 1.00000000 0.10000000 -0.93000000
v 1.00000000 0.10000000 -0.93000000
v 1.00000000 0.10000000 0.93000000
v 1.00000000 0.10000000 0.93000000
v 1.00000000 0.10000000 0.93000000
v 0.90000000 0.10000000 -0.93000000
v 0.90000000 0.10000000 -0.93000000
v 0.93000000 0.10000000 0.93000000
v 0.93000000 0.10000000 0.93000000
v 0.93000000 0.10000000 0.93000000
v -0.93000000 0.10000000 0.90000000
v -0.93000000 0.10000000 0.90000000
v -0.63271600 0.07000000 -0.90000000
v -0.63271600 0.07000000 -0.90000000
v -0.90000000 0.07000000 -0.63271600
v -0.90000000 0.07000000 -0.63271600
v -0.73500100 0.07000000 -0.87965400
v -0.73500100 0.07000000 -0.87965400
v -0.82171400 0.07000000 -0.82171400
v -0.82171400 0.07000000 -0.82171400
v -0.87965400 0.07000000 -0.73500100
v -0.87965400 0.07000000 -0.73500100
v -0.93000000 0.10000000 -0.66271600
v -0.93000000 0.10000000 -0.66271600
v -0.66271600 0.10000000 -0.93000000
v -0.66271600 0.10000000 -0.93000000
v -0.66271600 0.10000000 -0.93000000
v -0.90000000 0.10000000 -0.99995000
v -0.90000000 0.10000000 -0.99995000
v -0.90965400 0.10000000 -0.76500100
v -0.90965400 0.10000000 -0.76500100
v -0.85171400 0.10000000 -0.85171400
v -0.85171400 0.10000000 -0.85171400
v -0.76500100 0.10000000 -0.90965400
v -0.76500100 0.10000000 -0.90965400
v 0.58000000 0.07300000 0.87241700
v 0.62000000 0.07300000 1.00000000
v 0.58000000 0.07300000 1.00000000
v 0.87241700 0.07300000 0.58000000
v 1.00000000 0.07300000 0.62000000
v 1.00000000 0.07300000 0.58000000
v 0.90000000 0.07300000 0.62000000
v 0.62000000 0.07300000 0.90000000
v 0.78671700 0.07300000 0.63518200
v 0.69372600 0.07300000 0.69372600
v 0.63518200 0.07300000 0.78671700
v 0.60225900 0.07300000 0.76051400
v 0.66564700 0.07300000 0.66564700
v 0.76051400 0.07300000 0.60225900
v -0.62000000 0.07300000 -0.32758300
v -0.58000000 0.07300000 1.00000000
v -0.62000000 0.07300000 1.00000000
v -0.32758300 0.07300000 -0.62000000
v 1.00000000 0.07300000 -0.58000000
v 1.00000000 0.07300000 -0.62000000
v -0.30000000 0.07300000 -0.58000000
v -0.58000000 0.07300000 -0.30000000
v -0.41328300 0.07300000 -0.56481800
v -0.50627400 0.07300000 -0.50627400
v -0.56481800 0.07300000 -0.41328300
v -0.59774100 0.07300000 -0.43948600
v -0.53435300 0.07300000 -0.53435300
v -0.43948600 0.07300000 -0.59774100
v 0.02000000 0.07300000 0.10000000
v -0.02000000 0.07300000 0.10000000
v -0.02000000 0.07300000 0.30000000
v 0.02000000 0.07300000 0.30000000
v 0.02000000 0.07300000 0.50000000
v -0.02000000 0.07300000 0.50000000
v -0.02000000 0.07300000 0.70000000
v 0.02000000 0.07300000 0.70000000
v 0.02000000 0.07300000 0.90000000
v -0.02000000 0.07300000 0.90000000
v 0.90000000 0.07300000 -0.02000000
v 0.90000000 0.07300000 0.02000000
v 0.70000000 0.07300000 0.02000000
v 0.70000000 0.07300000 -0.02000000
v 0.50000000 0.07300000 -0.02000000
v 0.50000000 0.07300000 0.02000000
v 0.30000000 0.07300000 0.02000000
v 0.30000000 0.07300000 -0.02000000
v 0.10000000 0.07300000 -0.02000000
v 0.10000000 0.07300000 0.02000000
v -0.02000000 0.07300000 0.10000000
v 0.10000000 0.07300000 -0.02000000
v -0.01086600 0.07300000 0.05407800
v 0.01514700 0.07300000 0.01514700
v 0.05407800 0.07300000 -0.01086600
v 0.10000000 0.07300000 0.02000000
v 0.02000000 0.07300000 0.10000000
v 0.06938500 0.07300000 0.02609000
v 0.04343100 0.07300000 0.04343100
v 0.02609000 0.07300000 0.06938500
vn 0.00000000 -1.00000000 0.00000000
vn -1.00000000 0.00000000 0.00000000
vn 0.00000000 0.00000000 1.00000000
vn -1.00000000 0.00000000 0.00000000
vn 0.00000000 0.00000000 1.00000000
vn 0.00000000 0.00000000 -1.00000000
vn 0.00000000 -1.00000000 0.00000000
vn -1.00000000 0.00000000 0.00000000
vn -1.00000000 0.00000000 0.00000000
vn 0.00000000 0.00000000 -1.00000000
vn 0.00000000 -1.00000000 0.00000000
vn 0.00000000 0.00000000 1.00000000
vn 1.00000000 0.00000000 0.00000000
vn 1.00000000 0.00000000 0.00000000
vn 0.00000000 0.00000000 1.00000000
vn 0.00000000 -1.00000000 0.00000000
vn 0.00000000 0.00000000 -1.00000000
vn 1.00000000 0.00000000 0.00000000
vn 1.00000000 0.00000000 0.00000000
vn 0.00000000 0.00000000 -1.00000000
vn 0.00000000 0.00000000 -1.00000000
vn 0.00000000 -1.00000000 0.00000000
vn 0.00000000 -1.00000000 0.00000000
vn 0.00000000 0.00000000 -1.00000000
vn 0.00009494 0.00075160 -0.99999971
vn 0.00000000 0.00000000 -1.00000000
vn 0.00000000 -1.00000000 0.00000000
vn 0.00000000 -1.00000000 0.00000000
vn 0.00000000 0.00000000 1.00000000
vn 0.00000000 0.00000000 1.00000000
vn 0.00000000 -1.00000000 0.00000000
vn 0.00000000 -1.00000000 0.00000000
vn 0.00000000 0.00000000 1.00000000
vn 0.00000000 0.00000000 1.00000000
vn 0.00000000 0.00000000 1.00000000
vn 0.00000000 0.00000000 1.00000000
vn -0.70710678 0.70710678 0.00000000
vn 0.00000000 1.00000000 0.00000000
vn 0.70710678 0.70710678 0.00000000
vn 0.00000000 1.00000000 0.00000000
vn 0.00000000 0.00000000 1.00000000
vn 0.00000000 0.00000000 1.00000000
vn 0.00000000 -1.00000000 0.00000000
vn -1.00000000 0.00000000 0.00000000
vn -1.00000000 0.00000000 0.00000000
vn 0.00000000 -1.00000000 0.00000000
vn -1.00000000 0.00000000 0.00000000
vn -1.00000000 0.00000000 0.00000000
vn 0.00000000 -1.00000000 0.00000000
vn 1.00000000 0.00000000 0.00000000
vn 0.00000000 -1.00000000 0.00000000
vn 1.00000000 0.00000000 0.00000000
vn 1.00000000 0.00000000 0.00000000
vn 0.00000000 -1.00000000 0.00000000
vn 1.00000000 0.00000000 0.00000000
vn 0.00000000 -1.00000000 0.00000000
vn 1.00000000 0.00000000 0.00000000
vn 0.00000000 0.70710678 0.70710678
vn 1.00000000 0.00000000 0.00000000
vn 0.00000000 1.00000000 0.00000000
vn 0.00000000 1.00000000 0.00000000
vn 0.00000000 0.70710678 -0.70710678
vn 1.00000000 0.00000000 0.00000000
vn 1.00000000 0.00000000 0.00000000
vn 0.00000000 0.70710678 0.70710678
vn 0.00000000 1.00000000 0.00000000
vn 0.00000000 1.00000000 0.00000000
vn -0.70710678 0.70710678 0.00000000
vn 0.00000000 0.70710678 -0.70710678
vn 0.70710678 0.70710678 0.00000000
vn 0.00000000 1.00000000 0.00000000
vn 0.00000000 -1.00000000 0.00000000
vn 0.00000000 -1.00000000 0.00000000
vn 0.00000000 -1.00000000 0.00000000
vn 0.00000000 -1.00000000 0.00000000
vn 0.00000000 -1.00000000 0.00000000
vn 0.00000000 -1.00000000 0.00000000
vn 0.00000000 -1.00000000 0.00000000
vn 0.00000000 -1.00000000 0.00000000
vn -1.00000000 0.00000000 0.00000000
vn 0.00000000 1.00000000 0.00000000
vn 0.00009277 0.00030925 -0.99999995
vn 1.00000000 0.00000000 0.00000000
vn 0.00000000 1.00000000 0.00000000
vn 0.00000000 0.00000000 -1.00000000
vn 0.00000000 1.00000000 0.00000000
vn 1.00000000 0.00000000 0.00000000
vn 0.00000000 0.00000000 1.00000000
vn 0.00000000 1.00000000 0.00000000
vn 0.00000000 0.00000000 1.00000000
vn -1.00000000 0.00000000 0.00000000
vn 0.00000000 1.00000000 0.00000000
vn -0.00000015 0.00000884 -1.00000000
vn 0.00000000 1.00000000 0.00000000
vn -0.70710678 0.70710678 0.00000000
vn 0.00000000 0.00000000 1.00000000
vn 0.70710678 0.70710678 0.00000000
vn 0.00000000 0.00000000 1.00000000
vn 0.00000000 1.00000000 0.00000000
vn 0.00000000 1.00000000 0.00000000
vn -1.00000000 0.00000000 0.00000000
vn -1.00000000 0.00000000 0.00000000
vn 0.00000000 1.00000000 0.00000000
vn 1.00000000 0.00000000 0.00000000
vn 0.00000000 1.00000000 0.00000000
vn 0.00000000 0.70710678 0.70710678
vn 1.00000000 0.00000000 0.00000000
vn 0.00000000 1.00000000 0.00000000
vn 0.00000000 0.70710678 -0.70710678
vn 0.00000000 0.70710678 0.70710678
vn 0.00000000 1.00000000 0.00000000
vn -0.70710678 0.70710678 0.00000000
vn 0.00000000 0.70710678 -0.70710678
vn 0.00000000 1.00000000 0.00000000
vn 0.00000000 1.00000000 0.00000000
vn 0.70710678 0.70710678 0.00000000
vn 0.00000000 1.00000000 0.00000000
vn 0.04241874 0.72736126 0.68494252
vn 0.68494252 0.72736126 0.04241874
vn 0.00000000 1.00000000 0.00000000
vn 0.00000000 1.00000000 0.00000000
vn 0.20913834 0.78808645 0.57894811
vn 0.40824829 0.81649658 0.40824829
vn 0.00000000 1.00000000 0.00000000
vn 0.00000000 1.00000000 0.00000000
vn 0.57894811 0.78808645 0.20913834
vn 0.65998025 0.74630677 0.08632652
vn 0.00000000 1.00000000 0.00000000
vn 0.08632652 0.74630677 0.65998025
vn 0.00000000 1.00000000 0.00000000
vn 0.00000000 1.00000000 0.00000000
vn 0.00000000 1.00000000 0.00000000
vn 0.00023611 0.00166666 -0.99999858
vn 0.00000000 1.00000000 0.00000000
vn 0.54839851 0.79807358 0.24967506
vn 0.00000000 1.00000000 0.00000000
vn 0.40824829 0.81649658 0.40824829
vn 0.24967506 0.79807358 0.54839851
vn 0.00000000 1.00000000 0.00000000
vn 0.00000000 1.00000000 0.00000000
vn 0.00000000 1.00000000 0.00000000
vn 0.00000000 1.00000000 0.00000000
vn 0.00000000 1.00000000 0.00000000
vn 0.00000000 1.00000000 0.00000000
vn 0.00000000 1.00000000 0.00000000
vn 0.00000000 1.00000000 0.00000000
vn 0.00000000 1.00000000 0.00000000
vn 0.00000000 1.00000000 0.00000000
vn 0.00000000 1.00000000 0.00000000
vn 0.00000000 1.00000000 0.00000000
vn 0.00000000 1.00000000 0.00000000
vn 0.00000000 1.00000000 0.00000000
vn 0.00000000 1.00000000 0.00000000
vn 0.00000000 1.00000000 0.00000000
vn 0.00000000 1.00000000 0.00000000
vn 0.00000000 1.00000000 0.00000000
vn 0.00000000 1.00000000 0.00000000
vn 0.00000000 1.00000000 0.00000000
vn 0.00000000 1.00000000 0.00000000
vn 0.00000000 1.00000000 0.00000000
vn 0.00000000 1.00000000 0.00000000
vn 0.00000000 1.00000000 0.00000000
vn 0.00000000 1.00000000 0.00000000
vn 0.00000000 1.00000000 0.00000000
vn 0.00000000 1.00000000 0.00000000
vn 0.00000000 1.00000000 0.00000000
vn 0.00000000 1.00000000 0.00000000
vn 0.00000000 0.00000000 0.00000000
vn 0.00000000 0.00000000 0.00000000
vn 0.00000000 1.00000000 0.00000000
vn 0.00000000 1.00000000 0.00000000
vn 0.00000000 1.00000000 0.00000000
vn 0.00000000 1.00000000 0.00000000
vn 0.00000000 1.00000000 0.00000000
vn 0.00000000 1.00000000 0.00000000
vn 0.00000000 1.00000000 0.00000000
vn 0.00000000 1.00000000 0.00000000
vn 0.00000000 1.00000000 0.00000000
vn 0.00000000 1.00000000 0.00000000
vn 0.00000000 1.00000000 0.00000000
vn 0.00000000 1.00000000 0.00000000
vn 0.00000000 1.00000000 0.00000000
vn 0.00000000 1.00000000 0.00000000
vn 0.00000000 1.00000000 0.00000000
vn 0.00000000 1.00000000 0.00000000
vn 0.00000000 0.00000000 0.00000000
vn 0.00000000 0.00000000 0.00000000
vn 0.00000000 1.00000000 0.00000000
vn 0.00000000 1.00000000 0.00000000
vn 0.00000000 1.00000000 0.00000000
vn 0.00000000 1.00000000 0.00000000
vn 0.00000000 1.00000000 0.00000000
vn 0.00000000 1.00000000 0.00000000
vn 0.00000000 1.00000000 0.00000000
vn 0.00000000 1.00000000 0.00000000
vn 0.00000000 1.00000000 0.00000000
vn 0.00000000 1.00000000 0.00000000
vt 0.30869400 0.81171700
vt 0.30869400 0.81171700
vt 0.30869400 0.81171700
vt 0.30869400 0.82577000
vt 0.30869400 0.82577000
vt 0.30869400 0.81171700
vt 0.30869400 0.81171700
vt 0.30869400 0.81171700
vt 0.30869400 0.82577000
vt 0.30869400 0.82577000
vt 0.34550400 0.81171700
vt 0.34550400 0.81171700
vt 0.34550400 0.81171700
vt 0.34550400 0.82577000
vt 0.34550400 0.82577000
vt 0.34550400 0.81171700
vt 0.34550400 0.81171700
vt 0.34550400 0.81171700
vt 0.34550400 0.82577000
vt 0.34550400 0.82577000
vt 0.34182300 0.81171700
vt 0.34182300 0.81171700
vt 0.31237500 0.81171700
vt 0.31237500 0.81171700
vt 0.31237500 0.82577000
vt 0.34182300 0.82577000
vt 0.31237500 0.78046700
vt 0.31237500 0.81171700
vt 0.31237500 0.78046700
vt 0.31237500 0.81171700
vt 0.34182300 0.78046700
vt 0.34182300 0.81171700
vt 0.34182300 0.78046700
vt 0.34182300 0.81171700
vt 0.34182300 0.79115300
vt 0.34182300 0.82577000
vt 0.34182300 0.82577000
vt 0.34182300 0.79115300
vt 0.31237500 0.82577000
vt 0.31237500 0.79115300
vt 0.31237500 0.79115300
vt 0.31237500 0.82577000
vt 0.30869400 0.81171700
vt 0.30869400 0.81171700
vt 0.30869400 0.81171700
vt 0.30869400 0.81171700
vt 0.30869400 0.82577000
vt 0.30869400 0.82577000
vt 0.34550400 0.78046700
vt 0.34550400 0.81171700
vt 0.34550400 0.81171700
vt 0.34550400 0.78046700
vt 0.34550400 0.81171700
vt 0.34550400 0.78046700
vt 0.34550400 0.78046700
vt 0.34550400 0.81171700
vt 0.34550400 0.79115300
vt 0.34550400 0.82577000
vt 0.34550400 0.82577000
vt 0.34550400 0.79115300
vt 0.34550400 0.79115300
vt 0.34550400 0.82577000
vt 0.34550400 0.82577000
vt 0.34550400 0.79115300
vt 0.34182300 0.82577000
vt 0.34182300 0.79115300
vt 0.34182300 0.79115300
vt 0.34182300 0.82577000
vt 0.34182300 0.82577000
vt 0.31237500 0.82577000
vt 0.31237500 0.79115300
vt 0.31237500 0.81171700
vt 0.31237500 0.78046700
vt 0.31237500 0.78046700
vt 0.31237500 0.81171700
vt 0.34182300 0.81171700
vt 0.34182300 0.78046700
vt 0.34182300 0.81171700
vt 0.34182300 0.78046700
vt 0.30869400 0.83203100
vt 0.30869400 0.86328100
vt 0.30869400 0.83203100
vt 0.34550400 0.83203100
vt 0.34550400 0.86328100
vt 0.34550400 0.83203100
vt 0.34550400 0.86328100
vt 0.34550400 0.83203100
vt 0.34550400 0.83203100
vt 0.30869400 0.86328100
vt 0.30869400 0.83203100
vt 0.30869400 0.83203100
vt 0.34182300 0.86328100
vt 0.34182300 0.83203100
vt 0.34182300 0.86328100
vt 0.34182300 0.83203100
vt 0.34182300 0.83203100
vt 0.31237500 0.83203100
vt 0.31237500 0.83203100
vt 0.31237500 0.86328100
vt 0.30869400 0.86328100
vt 0.30869400 0.83203100
vt 0.30869400 0.83203100
vt 0.30869600 0.86328100
vt 0.34550400 0.83203100
vt 0.34550400 0.86328100
vt 0.34550400 0.83203100
vt 0.34550400 0.83203100
vt 0.34550400 0.86328100
vt 0.34550400 0.83203100
vt 0.34182300 0.83203100
vt 0.34182300 0.86328100
vt 0.34182300 0.83203100
vt 0.34182300 0.83203100
vt 0.34182300 0.86328100
vt 0.31237500 0.86328100
vt 0.31237500 0.83203100
vt 0.31674800 0.79115300
vt 0.31674800 0.82577000
vt 0.31237500 0.82577000
vt 0.31237500 0.79115300
vt 0.31507500 0.79115300
vt 0.31507500 0.82577000
vt 0.31237500 0.82577000
vt 0.31365600 0.79115300
vt 0.31270800 0.79115300
vt 0.31237500 0.82577000
vt 0.31237500 0.83203100
vt 0.31237500 0.86328100
vt 0.31674800 0.83203100
vt 0.31674800 0.86328100
vt 0.31237500 0.86328100
vt 0.31237500 0.86328100
vt 0.31237500 0.83203100
vt 0.31312400 0.86328100
vt 0.31237500 0.83203100
vt 0.31237500 0.86328100
vt 0.31237500 0.83203100
vt 0.31507500 0.83203100
vt 0.31237500 0.86328100
vt 0.43737500 0.66615300
vt 0.46682300 0.66615300
vt 0.43737500 0.66615300
vt 0.43737500 0.66615300
vt 0.46682300 0.66615300
vt 0.43737500 0.66615300
vt 0.46682300 0.66615300
vt 0.46682300 0.66615300
vt 0.48754100 0.66615300
vt 0.46682300 0.66615300
vt 0.48754100 0.66615300
vt 0.45873600 0.66615300
vt 0.46682300 0.66615300
vt 0.45873600 0.66615300
vt 0.43737500 0.66615300
vt 0.46682300 0.66615300
vt 0.43737500 0.66615300
vt 0.43737500 0.66615300
vt 0.46682300 0.66615300
vt 0.43737500 0.66615300
vt 0.46682300 0.66615300
vt 0.46682300 0.66615300
vt 0.48754100 0.66615300
vt 0.46682300 0.66615300
vt 0.48754100 0.66615300
vt 0.45873600 0.66615300
vt 0.46682300 0.66615300
vt 0.45873600 0.66615300
vt 0.21682300 0.91615300
vt 0.18737500 0.91615300
vt 0.18737500 0.91615300
vt 0.21682300 0.91615300
vt 0.21682300 0.91615300
vt 0.18737500 0.91615300
vt 0.18737500 0.91615300
vt 0.21682300 0.91615300
vt 0.21682300 0.91615300
vt 0.18737500 0.91615300
vt 0.18737500 0.91615300
vt 0.21682300 0.91615300
vt 0.21682300 0.91615300
vt 0.18737500 0.91615300
vt 0.18737500 0.91615300
vt 0.21682300 0.91615300
vt 0.21682300 0.91615300
vt 0.18737500 0.91615300
vt 0.18737500 0.91615300
vt 0.21682300 0.91615300
vt 0.18737500 0.91615300
vt 0.18737500 0.91615300
vt 0.19410000 0.91615300
vt 0.21325000 0.91615300
vt 0.19410000 0.91615300
vt 0.21682300 0.91615300
vt 0.21682300 0.91615300
vt 0.22130600 0.91615300
vt 0.21682300 0.91615300
vt 0.22130600 0.91615300
f 67/67/67 61/61/61 60/60/60
f 60/60/60 66/66/66 67/67/67
f 4/4/4 47/47/47 45/45/45
f 45/45/45 2/2/2 4/4/4
f 10/10/10 25/25/25 24/24/24
f 24/24/24 6/6/6 10/10/10
f 81/81/81 103/103/103 132/132/132
f 39/39/39 70/70/70 116/116/116
f 116/116/116 97/97/97 39/39/39
f 4/4/4 91/91/91 101/101/101
f 101/101/101 47/47/47 4/4/4
f 46/46/46 75/75/75 28/28/28
f 28/28/28 1/1/1 46/46/46
f 23/23/23 72/72/72 43/43/43
f 43/43/43 7/7/7 23/23/23
f 21/21/21 26/26/26 20/20/20
f 20/20/20 17/17/17 21/21/21
f 35/35/35 41/41/41 29/29/29
f 29/29/29 33/33/33 35/35/35
f 25/25/25 10/10/10 82/82/82
f 82/82/82 133/133/133 25/25/25
f 25/25/25 26/26/26 21/21/21
f 21/21/21 24/24/24 25/25/25
f 78/78/78 51/51/51 11/11/11
f 11/11/11 32/32/32 78/78/78
f 62/62/62 69/69/69 113/113/113
f 113/113/113 109/109/109 62/62/62
f 77/77/77 79/79/79 74/74/74
f 74/74/74 73/73/73 77/77/77
f 74/74/74 79/79/79 31/31/31
f 31/31/31 27/27/27 74/74/74
f 22/22/22 76/76/76 72/72/72
f 72/72/72 23/23/23 22/22/22
f 72/72/72 75/75/75 46/46/46
f 46/46/46 43/43/43 72/72/72
f 49/49/49 79/79/79 77/77/77
f 77/77/77 54/54/54 49/49/49
f 16/16/16 56/56/56 76/76/76
f 76/76/76 22/22/22 16/16/16
f 19/19/19 83/83/83 104/104/104
f 104/104/104 59/59/59 19/19/19
f 15/15/15 88/88/88 96/96/96
f 96/96/96 36/36/36 15/15/15
f 47/47/47 101/101/101 102/102/102
f 102/102/102 48/48/48 47/47/47
f 127/127/127 116/116/116 70/70/70
f 70/70/70 119/119/119 127/127/127
f 9/9/9 48/48/48 102/102/102
f 102/102/102 80/80/80 9/9/9
f 118/118/118 65/65/65 110/110/110
f 110/110/110 129/129/129 118/118/118
f 67/67/67 71/71/71 40/40/40
f 40/40/40 38/38/38 67/67/67
f 37/37/37 95/95/95 112/112/112
f 112/112/112 68/68/68 37/37/37
f 14/14/14 63/63/63 107/107/107
f 107/107/107 87/87/87 14/14/14
f 65/65/65 58/58/58 106/106/106
f 106/106/106 110/110/110 65/65/65
f 20/20/20 26/26/26 93/93/93
f 93/93/93 85/85/85 20/20/20
f 5/5/5 42/42/42 98/98/98
f 98/98/98 90/90/90 5/5/5
f 111/111/111 105/105/105 84/84/84
f 84/84/84 92/92/92 111/111/111
f 25/25/25 133/133/133 93/93/93
f 93/93/93 26/26/26 25/25/25
f 57/57/57 64/64/64 52/52/52
f 52/52/52 55/55/55 57/57/57
f 50/50/50 63/63/63 14/14/14
f 14/14/14 13/13/13 50/50/50
f 47/47/47 48/48/48 44/44/44
f 44/44/44 45/45/45 47/47/47
f 44/44/44 48/48/48 9/9/9
f 9/9/9 8/8/8 44/44/44
f 30/30/30 42/42/42 5/5/5
f 5/5/5 3/3/3 30/30/30
f 100/100/100 115/115/115 128/128/128
f 128/128/128 103/103/103 100/100/100
f 132/132/132 130/130/130 111/111/111
f 111/111/111 92/92/92 132/132/132
f 115/115/115 100/100/100 89/89/89
f 89/89/89 99/99/99 115/115/115
f 108/108/108 114/114/114 94/94/94
f 94/94/94 86/86/86 108/108/108
f 15/15/15 36/36/36 34/34/34
f 34/34/34 12/12/12 15/15/15
f 19/19/19 59/59/59 53/53/53
f 53/53/53 18/18/18 19/19/19
f 139/139/139 131/131/131 132/132/132
f 118/118/118 129/129/129 138/138/138
f 138/138/138 122/122/122 118/118/118
f 122/122/122 138/138/138 137/137/137
f 137/137/137 123/123/123 122/122/122
f 123/123/123 137/137/137 135/135/135
f 135/135/135 126/126/126 123/123/123
f 126/126/126 135/135/135 127/127/127
f 127/127/127 119/119/119 126/126/126
f 67/67/67 120/120/120 71/71/71
f 134/134/134 136/136/136 103/103/103
f 103/103/103 136/136/136 132/132/132
f 136/136/136 139/139/139 132/132/132
f 128/128/128 134/134/134 103/103/103
f 141/141/141 147/147/147 140/140/140
f 140/140/140 142/142/142 141/141/141
f 146/146/146 144/144/144 145/145/145
f 145/145/145 143/143/143 146/146/146
f 140/140/140 147/147/147 150/150/150
f 150/150/150 151/151/151 140/140/140
f 151/151/151 150/150/150 149/149/149
f 149/149/149 152/152/152 151/151/151
f 152/152/152 149/149/149 148/148/148
f 148/148/148 153/153/153 152/152/152
f 153/153/153 148/148/148 146/146/146
f 146/146/146 143/143/143 153/153/153
f 155/155/155 161/161/161 154/154/154
f 154/154/154 156/156/156 155/155/155
f 160/160/160 158/158/158 159/159/159
f 159/159/159 157/157/157 160/160/160
f 154/154/154 161/161/161 164/164/164
f 164/164/164 165/165/165 154/154/154
f 165/165/165 164/164/164 163/163/163
f 163/163/163 166/166/166 165/165/165
f 166/166/166 163/163/163 162/162/162
f 162/162/162 167/167/167 166/166/166
f 167/167/167 162/162/162 160/160/160
f 160/160/160 157/157/157 167/167/167
f 172/172/172 171/171/171 170/170/170
f 170/170/170 173/173/173 172/172/172
f 176/176/176 175/175/175 174/174/174
f 174/174/174 177/177/177 176/176/176
f 180/180/180 179/179/179 178/178/178
f 178/178/178 181/181/181 180/180/180
f 184/184/184 183/183/183 182/182/182
f 182/182/182 185/185/185 184/184/184
f 168/168/168 168/168/168 169/169/169
f 169/169/169 169/169/169 168/168/168
f 188/188/188 194/194/194 197/197/197
f 197/197/197 190/190/190 188/188/188
f 190/190/190 197/197/197 196/196/196
f 196/196/196 191/191/191 190/190/190
f 191/191/191 196/196/196 195/195/195
f 195/195/195 192/192/192 191/191/191
f 192/192/192 195/195/195 193/193/193
f 193/193/193 189/189/189 192/192/192
f 187/187/187 187/187/187 186/186/186
f 186/186/186 186/186/186 187/187/187
f 125/125/125 120/120/120 67/67/67
f 66/66/66 117/117/117 67/67/67
f 117/117/117 121/121/121 67/67/67
f 121/121/121 124/124/124 67/67/67
f 124/124/124 125/125/125 67/67/67

