# https://github.com/mikedh/trimesh
mtllib material.mtl
usemtl material_0
v -1.00000000 0.00000000 1.00000000
v -1.00000000 0.00000000 1.00000000
v -1.00000000 0.00000000 1.00000000
v -1.00000000 0.07000000 1.00000000
v -1.00000000 0.07000000 1.00000000
v -1.00000000 0.00000000 -1.00000000
v -1.00000000 0.00000000 -1.00000000
v -1.00000000 0.00000000 -1.00000000
v -1.00000000 0.07000000 -1.00000000
v -1.00000000 0.07000000 -1.00000000
v 1.00000000 0.00000000 1.00000000
v 1.00000000 0.00000000 1.00000000
v 1.00000000 0.00000000 1.00000000
v 1.00000000 0.07000000 1.00000000
v 1.00000000 0.07000000 1.00000000
v 1.00000000 0.00000000 -1.00000000
v 1.00000000 0.00000000 -1.00000000
v 1.00000000 0.00000000 -1.00000000
v 1.00000000 0.07000000 -1.00000000
v 1.00000000 0.07000000 -1.00000000
v 0.90000000 0.00000000 -1.00000000
v 0.90000000 0.00000000 -1.00000000
v 0.90000000 0.00000000 -1.00000000
v 0.90000000 0.00000000 -1.00000000
v -0.90000000 0.00000000 -1.00000000
v -0.90000000 0.00000000 -1.00000000
v -0.90000000 0.00000000 -1.00000000
v -0.90000000 0.00000000 -1.00000000
v -0.90000000 0.07000000 -1.00000000
v -0.90000000 0.07000000 -1.00000000
v -0.90000000 0.07000000 -1.00000000
v -0.90000000 0.07000000 -1.00000000
v 0.90000000 0.07000000 -1.00000000
v 0.90000000 0.07000000 -1.00000000
v 0.90000000 0.07000000 -1.00000000
v 0.90000000 0.07000000 -1.00000000
v -0.90000000 0.00000000 1.00000000
v -0.90000000 0.00000000 1.00000000
v -0.90000000 0.00000000 1.00000000
v -0.90000000 0.00000000 1.00000000
v 0.90000000 0.00000000 1.00000000
v 0.90000000 0.00000000 1.00000000
v 0.90000000 0.00000000 1.00000000
v 0.90000000 0.00000000 1.00000000
v 0.90000000 0.07000000 1.00000000
v 0.90000000 0.07000000 1.00000000
v 0.90000000 0.07000000 1.00000000
v 0.90000000 0.07000000 1.00000000
v -0.90000000 0.07000000 1.00000000
v -0.90000000 0.07000000 1.00000000
v -0.90000000 0.07000000 1.00000000
v -0.90000000 0.07000000 1.00000000
v -1.00000000 0.00000000 -0.90000000
v -1.00000000 0.00000000 -0.90000000
v -1.00000000 0.00000000 -0.90000000
v -1.00000000 0.00000000 -0.90000000
v -1.00000000 0.00000000 0.90000000
v -1.00000000 0.00000000 0.90000000
v -1.00000000 0.00000000 0.90000000
v -1.00000000 0.00000000 0.90000000
v -1.00000000 0.07000000 0.90000000
v -1.00000000 0.07000000 0.90000000
v -1.00000000 0.07000000 0.90000000
v -1.00000000 0.07000000 0.90000000
v -1.00000000 0.07000000 -0.90000000
v -1.00000000 0.07000000 -0.90000000
v -1.00000000 0.07000000 -0.90000000
v -1.00000000 0.07000000 -0.90000000
v 1.00000000 0.00000000 0.90000000
v 1.00000000 0.00000000 0.90000000
v 1.00000000 0.00000000 0.90000000
v 1.00000000 0.00000000 0.90000000
v 1.00000000 0.00000000 -0.90000000
v 1.00000000 0.00000000 -0.90000000
v 1.00000000 0.00000000 -0.90000000
v 1.00000000 0.00000000 -0.90000000
v 1.00000000 0.07000000 -0.90000000
v 1.00000000 0.07000000 -0.90000000
v 1.00000000 0.07000000 -0.90000000
v 1.00000000 0.07000000 -0.90000000
v 1.00000000 0.07000000 0.90000000
v 1.00000000 0.07000000 0.90000000
v 1.00000000 0.07000000 0.90000000
v 1.00000000 0.07000000 0.90000000
v 0.90000000 0.07000000 -0.90000000
v 0.90000000 0.07000000 -0.90000000
v 0.90000000 0.07000000 -0.90000000
v 0.90000000 0.07000000 0.90000000
v 0.90000000 0.07000000 0.90000000
v 0.90000000 0.07000000 0.90000000
v -0.90000000 0.07000000 -0.90000000
v -0.90000000 0.07000000 -0.90000000
v -0.90000000 0.07000000 -0.90000000
v -0.90000000 0.07000000 0.90000000
v -0.90000000 0.07000000 0.90000000
v -0.90000000 0.07000000 0.90000000
v -0.90000000 0.00000000 -0.90000000
v -0.90000000 0.00000000 -0.90000000
v -0.90000000 0.00000000 0.90000000
v -0.90000000 0.00000000 0.90000000
v 0.90000000 0.00000000 -0.90000000
v 0.90000000 0.00000000 -0.90000000
v 0.90000000 0.00000000 0.90000000
v 0.90000000 0.00000000 0.90000000
v -1.00000000 0.10000000 -1.00000000
v -1.00000000 0.10000000 -1.00000000
v -1.00000000 0.10000000 -1.00000000
v 1.00000000 0.10000000 -1.00000000
v 1.00000000 0.10000000 -1.00000000
v 1.00000000 0.10000000 -1.00000000
v 1.00000000 0.10000000 1.00000000
v 1.00000000 0.10000000 1.00000000
v 1.00000000 0.10000000 1.00000000
v -1.00000000 0.10000000 1.00000000
v -1.00000000 0.10000000 1.00000000
v -1.00000000 0.10000000 1.00000000
v -0.93000000 0.10000000 -1.00000000
v -0.93000000 0.10000000 -1.00000000
v -0.93000000 0.10000000 -1.00000000
v 0.93000000 0.10000000 -1.00000000
v 0.93000000 0.10000000 -1.00000000
v 0.93000000 0.10000000 -1.00000000
v 0.93000000 0.10000000 1.00000000
v 0.93000000 0.10000000 1.00000000
v 0.93000000 0.10000000 1.00000000
v -0.93000000 0.10000000 1.00000000
v -0.93000000 0.10000000 1.00000000
v -0.93000000 0.10000000 1.00000000
v -1.00000000 0.10000000 0.93000000
v -1.00000000 0.10000000 0.93000000
v -1.00000000 0.10000000 0.93000000
v -1.00000000 0.10000000 -0.93000000
v -1.00000000 0.10000000 -0.93000000
v -1.00000000 0.10000000 -0.93000000
v 1.00000000 0.10000000 -0.93000000
v 1.00000000 0.10000000 -0.93000000
v 1.00000000 0.10000000 -0.93000000
v 1.00000000 0.10000000 0.93000000
v 1.00000000 0.10000000 0.93000000
v 1.00000000 0.10000000 0.93000000
v 0.93000000 0.10000000 -0.93000000
v 0.93000000 0.10000000 -0.93000000
v 0.93000000 0.10000000 -0.93000000
v 0.93000000 0.10000000 0.93000000
v 0.93000000 0.10000000 0.93000000
v 0.93000000 0.10000000 0.93000000
v -0.93000000 0.10000000 -0.93000000
v -0.93000000 0.10000000 -0.93000000
v -0.93000000 0.10000000 -0.93000000
v -0.93000000 0.10000000 0.93000000
v -0.93000000 0.10000000 0.93000000
v -0.93000000 0.10000000 0.93000000
v 0.58000000 0.07300000 0.87241700
v 0.62000000 0.07300000 1.00000000
v 0.58000000 0.07300000 1.00000000
v 0.87241700 0.07300000 0.58000000
v 1.00000000 0.07300000 0.62000000
v 1.00000000 0.07300000 0.58000000
v 0.90000000 0.07300000 0.62000000
v 0.62000000 0.07300000 0.90000000
v 0.78671700 0.07300000 0.63518200
v 0.69372600 0.07300000 0.69372600
v 0.63518200 0.07300000 0.78671700
v 0.60225900 0.07300000 0.76051400
v 0.66564700 0.07300000 0.66564700
v 0.76051400 0.07300000 0.60225900
v -0.58000000 0.07300000 -0.87241700
v -0.62000000 0.07300000 -1.00000000
v -0.58000000 0.07300000 -1.00000000
v -0.87241700 0.07300000 -0.58000000
v -1.00000000 0.07300000 -0.62000000
v -1.00000000 0.07300000 -0.58000000
v -0.90000000 0.07300000 -0.62000000
v -0.62000000 0.07300000 -0.90000000
v -0.78671700 0.07300000 -0.63518300
v -0.69372600 0.07300000 -0.69372600
v -0.63518200 0.07300000 -0.78671800
v -0.60225900 0.07300000 -0.76051400
v -0.66564700 0.07300000 -0.66564700
v -0.76051400 0.07300000 -0.60225900
v 0.87241700 0.07300000 -0.58000000
v 1.00000000 0.07300000 -0.62000000
v 1.00000000 0.07300000 -0.58000000
v 0.58000000 0.07300000 -0.87241700
v 0.62000000 0.07300000 -1.00000000
v 0.58000000 0.07300000 -1.00000000
v 0.62000000 0.07300000 -0.90000000
v 0.90000000 0.07300000 -0.62000000
v 0.63518200 0.07300000 -0.78671700
v 0.69372600 0.07300000 -0.69372600
v 0.78671700 0.07300000 -0.63518200
v 0.76051400 0.07300000 -0.60225900
v 0.66564700 0.07300000 -0.66564700
v 0.60225900 0.07300000 -0.76051400
v -0.87241700 0.07300000 0.58000000
v -1.00000000 0.07300000 0.62000000
v -1.00000000 0.07300000 0.58000000
v -0.58000000 0.07300000 0.87241700
v -0.62000000 0.07300000 1.00000000
v -0.58000000 0.07300000 1.00000000
v -0.62000000 0.07300000 0.90000000
v -0.90000000 0.07300000 0.62000000
v -0.63518300 0.07300000 0.78671700
v -0.69372600 0.07300000 0.69372600
v -0.78671700 0.07300000 0.63518200
v -0.76051400 0.07300000 0.60225900
v -0.66564700 0.07300000 0.66564700
v -0.60225900 0.07300000 0.76051400
v 0.90000000 0.07300000 -0.02000000
v 0.90000000 0.07300000 0.02000000
v 0.58000000 0.07300000 -0.60000000
v 0.62000000 0.07300000 -0.60000000
v 0.58000000 0.07300000 0.02000000
v 0.62000000 0.07300000 -0.02000000
v -0.90000000 0.07300000 0.02000000
v -0.90000000 0.07300000 -0.02000000
v -0.58000000 0.07300000 0.60000000
v -0.62000000 0.07300000 0.60000000
v -0.58000000 0.07300000 -0.02000000
v -0.62000000 0.07300000 0.02000000
v 0.58000000 0.07300000 0.10000000
v 0.62000000 0.07300000 0.10000000
v 0.62000000 0.07300000 0.20000000
v 0.58000000 0.07300000 0.20000000
v 0.58000000 0.07300000 0.30000000
v 0.62000000 0.07300000 0.30000000
v 0.62000000 0.07300000 0.40000000
v 0.58000000 0.07300000 0.40000000
v 0.58000000 0.07300000 0.60000000
v 0.62000000 0.07300000 0.60000000
v 0.62000000 0.07300000 0.50000000
v 0.58000000 0.07300000 0.50000000
v -0.58000000 0.07300000 -0.10000000
v -0.62000000 0.07300000 -0.10000000
v -0.62000000 0.07300000 -0.20000000
v -0.58000000 0.07300000 -0.20000000
v -0.58000000 0.07300000 -0.30000000
v -0.62000000 0.07300000 -0.30000000
v -0.62000000 0.07300000 -0.40000000
v -0.58000000 0.07300000 -0.40000000
v -0.58000000 0.07300000 -0.60000000
v -0.62000000 0.07300000 -0.60000000
v -0.62000000 0.07300000 -0.50000000
v -0.58000000 0.07300000 -0.50000000
v -0.02000000 0.07300000 -0.90000000
v 0.02000000 0.07300000 -0.90000000
v 0.02000000 0.07300000 -0.70000000
v -0.02000000 0.07300000 -0.70000000
v -0.02000000 0.07300000 -0.50000000
v 0.02000000 0.07300000 -0.50000000
v 0.02000000 0.07300000 -0.30000000
v -0.02000000 0.07300000 -0.30000000
v -0.02000000 0.07300000 -0.10000000
v 0.02000000 0.07300000 -0.10000000
v 0.02000000 0.07300000 0.10000000
v -0.02000000 0.07300000 0.10000000
v -0.02000000 0.07300000 0.30000000
v 0.02000000 0.07300000 0.30000000
v 0.02000000 0.07300000 0.50000000
v -0.02000000 0.07300000 0.50000000
v -0.02000000 0.07300000 0.70000000
v 0.02000000 0.07300000 0.70000000
v 0.02000000 0.07300000 0.90000000
v -0.02000000 0.07300000 0.90000000
vn 0.00000000 0.00000000 1.00000000
vn 0.00000000 -1.00000000 0.00000000
vn -1.00000000 0.00000000 0.00000000
vn 0.00000000 0.00000000 1.00000000
vn -1.00000000 0.00000000 0.00000000
vn 0.00000000 -1.00000000 0.00000000
vn -1.00000000 0.00000000 0.00000000
vn 0.00000000 0.00000000 -1.00000000
vn 0.00000000 0.00000000 -1.00000000
vn -1.00000000 0.00000000 0.00000000
vn 1.00000000 0.00000000 0.00000000
vn 0.00000000 0.00000000 1.00000000
vn 0.00000000 -1.00000000 0.00000000
vn 0.00000000 0.00000000 1.00000000
vn 1.00000000 0.00000000 0.00000000
vn 1.00000000 0.00000000 0.00000000
vn 0.00000000 0.00000000 -1.00000000
vn 0.00000000 -1.00000000 0.00000000
vn 0.00000000 0.00000000 -1.00000000
vn 1.00000000 0.00000000 0.00000000
vn 0.00000000 -1.00000000 0.00000000
vn 0.00000000 0.00000000 -1.00000000
vn 0.00000000 -1.00000000 0.00000000
vn 0.00000000 0.00000000 -1.00000000
vn 0.00000000 0.00000000 -1.00000000
vn 0.00000000 -1.00000000 0.00000000
vn 0.00000000 0.00000000 -1.00000000
vn 0.00000000 -1.00000000 0.00000000
vn 0.00000000 1.00000000 0.00000000
vn 0.00000000 0.00000000 -1.00000000
vn 0.70710678 0.70710678 0.00000000
vn 0.00000000 0.00000000 -1.00000000
vn 0.00000000 0.00000000 -1.00000000
vn 0.00000000 1.00000000 0.00000000
vn 0.00000000 0.00000000 -1.00000000
vn -0.70710678 0.70710678 0.00000000
vn 0.00000000 -1.00000000 0.00000000
vn 0.00000000 -1.00000000 0.00000000
vn 0.00000000 0.00000000 1.00000000
vn 0.00000000 0.00000000 1.00000000
vn 0.00000000 0.00000000 1.00000000
vn 0.00000000 0.00000000 1.00000000
vn 0.00000000 -1.00000000 0.00000000
vn 0.00000000 -1.00000000 0.00000000
vn 0.00000000 1.00000000 0.00000000
vn 0.00000000 0.00000000 1.00000000
vn -0.70710678 0.70710678 0.00000000
vn 0.00000000 0.00000000 1.00000000
vn 0.00000000 0.00000000 1.00000000
vn 0.70710678 0.70710678 0.00000000
vn 0.00000000 0.00000000 1.00000000
vn 0.00000000 1.00000000 0.00000000
vn -1.00000000 0.00000000 0.00000000
vn -1.00000000 0.00000000 0.00000000
vn 0.00000000 -1.00000000 0.00000000
vn 0.00000000 -1.00000000 0.00000000
vn 0.00000000 -1.00000000 0.00000000
vn 0.00000000 -1.00000000 0.00000000
vn -1.00000000 0.00000000 0.00000000
vn -1.00000000 0.00000000 0.00000000
vn 0.00000000 0.70710678 -0.70710678
vn -1.00000000 0.00000000 0.00000000
vn 0.00000000 1.00000000 0.00000000
vn -1.00000000 0.00000000 0.00000000
vn -1.00000000 0.00000000 0.00000000
vn -1.00000000 0.00000000 0.00000000
vn 0.00000000 0.70710678 0.70710678
vn 0.00000000 1.00000000 0.00000000
vn 0.00000000 -1.00000000 0.00000000
vn 0.00000000 -1.00000000 0.00000000
vn 1.00000000 0.00000000 0.00000000
vn 1.00000000 0.00000000 0.00000000
vn 0.00000000 -1.00000000 0.00000000
vn 1.00000000 0.00000000 0.00000000
vn 1.00000000 0.00000000 0.00000000
vn 0.00000000 -1.00000000 0.00000000
vn 0.00000000 1.00000000 0.00000000
vn 1.00000000 0.00000000 0.00000000
vn 0.00000000 0.70710678 0.70710678
vn 1.00000000 0.00000000 0.00000000
vn 1.00000000 0.00000000 0.00000000
vn 1.00000000 0.00000000 0.00000000
vn 0.00000000 1.00000000 0.00000000
vn 0.00000000 0.70710678 -0.70710678
vn 0.00000000 1.00000000 0.00000000
vn 0.00000000 0.70710678 0.70710678
vn -0.70710678 0.70710678 0.00000000
vn 0.00000000 1.00000000 0.00000000
vn 0.00000000 0.70710678 -0.70710678
vn -0.70710678 0.70710678 0.00000000
vn 0.00000000 0.70710678 0.70710678
vn 0.00000000 1.00000000 0.00000000
vn 0.70710678 0.70710678 0.00000000
vn 0.00000000 1.00000000 0.00000000
vn 0.70710678 0.70710678 0.00000000
vn 0.00000000 0.70710678 -0.70710678
vn 0.00000000 -1.00000000 0.00000000
vn 0.00000000 -1.00000000 0.00000000
vn 0.00000000 -1.00000000 0.00000000
vn 0.00000000 -1.00000000 0.00000000
vn 0.00000000 -1.00000000 0.00000000
vn 0.00000000 -1.00000000 0.00000000
vn 0.00000000 -1.00000000 0.00000000
vn 0.00000000 -1.00000000 0.00000000
vn 0.00000000 0.00000000 -1.00000000
vn -1.00000000 0.00000000 0.00000000
vn 0.00000000 1.00000000 0.00000000
vn 0.00000000 1.00000000 0.00000000
vn 0.00000000 0.00000000 -1.00000000
vn 1.00000000 0.00000000 0.00000000
vn 0.00000000 1.00000000 0.00000000
vn 1.00000000 0.00000000 0.00000000
vn 0.00000000 0.00000000 1.00000000
vn 0.00000000 1.00000000 0.00000000
vn 0.00000000 0.00000000 1.00000000
vn -1.00000000 0.00000000 0.00000000
vn 0.70710678 0.70710678 0.00000000
vn 0.00000000 1.00000000 0.00000000
vn 0.00000000 0.00000000 -1.00000000
vn -0.70710678 0.70710678 0.00000000
vn 0.00000000 0.00000000 -1.00000000
vn 0.00000000 1.00000000 0.00000000
vn -0.70710678 0.70710678 0.00000000
vn 0.00000000 0.00000000 1.00000000
vn 0.00000000 1.00000000 0.00000000
vn 0.70710678 0.70710678 0.00000000
vn 0.00000000 1.00000000 0.00000000
vn 0.00000000 0.00000000 1.00000000
vn -1.00000000 0.00000000 0.00000000
vn 0.00000000 1.00000000 0.00000000
vn 0.00000000 0.70710678 -0.70710678
vn 0.00000000 1.00000000 0.00000000
vn 0.00000000 0.70710678 0.70710678
vn -1.00000000 0.00000000 0.00000000
vn 0.00000000 0.70710678 0.70710678
vn 1.00000000 0.00000000 0.00000000
vn 0.00000000 1.00000000 0.00000000
vn 0.00000000 0.70710678 -0.70710678
vn 0.00000000 1.00000000 0.00000000
vn 1.00000000 0.00000000 0.00000000
vn 0.00000000 0.70710678 0.70710678
vn -0.70710678 0.70710678 0.00000000
vn 0.00000000 1.00000000 0.00000000
vn 0.00000000 1.00000000 0.00000000
vn -0.70710678 0.70710678 0.00000000
vn 0.00000000 0.70710678 -0.70710678
vn 0.00000000 0.70710678 0.70710678
vn 0.00000000 1.00000000 0.00000000
vn 0.70710678 0.70710678 0.00000000
vn 0.00000000 0.70710678 -0.70710678
vn 0.70710678 0.70710678 0.00000000
vn 0.00000000 1.00000000 0.00000000
vn 0.00000000 1.00000000 0.00000000
vn 0.00000000 1.00000000 0.00000000
vn 0.00000000 1.00000000 0.00000000
vn 0.00000000 1.00000000 0.00000000
vn 0.00000000 1.00000000 0.00000000
vn 0.00000000 1.00000000 0.00000000
vn 0.00000000 1.00000000 0.00000000
vn 0.00000000 1.00000000 0.00000000
vn 0.00000000 1.00000000 0.00000000
vn 0.00000000 1.00000000 0.00000000
vn 0.00000000 1.00000000 0.00000000
vn 0.00000000 1.00000000 0.00000000
vn 0.00000000 1.00000000 0.00000000
vn 0.00000000 1.00000000 0.00000000
vn 0.00000000 1.00000000 0.00000000
vn 0.00000000 1.00000000 0.00000000
vn 0.00000000 1.00000000 0.00000000
vn 0.00000000 1.00000000 0.00000000
vn 0.00000000 1.00000000 0.00000000
vn 0.00000000 1.00000000 0.00000000
vn 0.00000000 1.00000000 0.00000000
vn 0.00000000 1.00000000 0.00000000
vn 0.00000000 1.00000000 0.00000000
vn 0.00000000 1.00000000 0.00000000
vn 0.00000000 1.00000000 0.00000000
vn 0.00000000 1.00000000 0.00000000
vn 0.00000000 1.00000000 0.00000000
vn 0.00000000 1.00000000 0.00000000
vn 0.00000000 1.00000000 0.00000000
vn 0.00000000 1.00000000 0.00000000
vn 0.00000000 1.00000000 0.00000000
vn 0.00000000 1.00000000 0.00000000
vn 0.00000000 1.00000000 0.00000000
vn 0.00000000 1.00000000 0.00000000
vn 0.00000000 1.00000000 0.00000000
vn 0.00000000 1.00000000 0.00000000
vn 0.00000000 1.00000000 0.00000000
vn 0.00000000 1.00000000 0.00000000
vn 0.00000000 1.00000000 0.00000000
vn 0.00000000 1.00000000 0.00000000
vn 0.00000000 1.00000000 0.00000000
vn 0.00000000 1.00000000 0.00000000
vn 0.00000000 1.00000000 0.00000000
vn 0.00000000 1.00000000 0.00000000
vn 0.00000000 1.00000000 0.00000000
vn 0.00000000 1.00000000 0.00000000
vn 0.00000000 1.00000000 0.00000000
vn 0.00000000 1.00000000 0.00000000
vn 0.00000000 1.00000000 0.00000000
vn 0.00000000 1.00000000 0.00000000
vn 0.00000000 1.00000000 0.00000000
vn 0.00000000 1.00000000 0.00000000
vn 0.00000000 1.00000000 0.00000000
vn 0.00000000 1.00000000 0.00000000
vn 0.00000000 1.00000000 0.00000000
vn 0.00000000 1.00000000 0.00000000
vn 0.00000000 1.00000000 0.00000000
vn 0.00000000 1.00000000 0.00000000
vn 0.00000000 1.00000000 0.00000000
vn 0.00000000 1.00000000 0.00000000
vn 0.00000000 1.00000000 0.00000000
vn 0.00000000 1.00000000 0.00000000
vn 0.00000000 1.00000000 0.00000000
vn 0.00000000 1.00000000 0.00000000
vn 0.00000000 1.00000000 0.00000000
vn 0.00000000 1.00000000 0.00000000
vn 0.00000000 1.00000000 0.00000000
vn 0.00000000 1.00000000 0.00000000
vn 0.00000000 1.00000000 0.00000000
vn 0.00000000 1.00000000 0.00000000
vn 0.00000000 1.00000000 0.00000000
vn 0.00000000 1.00000000 0.00000000
vn 0.00000000 1.00000000 0.00000000
vn 0.00000000 1.00000000 0.00000000
vn 0.00000000 1.00000000 0.00000000
vn 0.00000000 1.00000000 0.00000000
vn 0.00000000 1.00000000 0.00000000
vn 0.00000000 1.00000000 0.00000000
vn 0.00000000 1.00000000 0.00000000
vn 0.00000000 1.00000000 0.00000000
vn 0.00000000 1.00000000 0.00000000
vn 0.00000000 1.00000000 0.00000000
vn 0.00000000 1.00000000 0.00000000
vn 0.00000000 1.00000000 0.00000000
vn 0.00000000 1.00000000 0.00000000
vn 0.00000000 1.00000000 0.00000000
vn 0.00000000 1.00000000 0.00000000
vn 0.00000000 1.00000000 0.00000000
vn 0.00000000 1.00000000 0.00000000
vn 0.00000000 1.00000000 0.00000000
vn 0.00000000 1.00000000 0.00000000
vn 0.00000000 1.00000000 0.00000000
vn 0.00000000 1.00000000 0.00000000
vn 0.00000000 1.00000000 0.00000000
vn 0.00000000 1.00000000 0.00000000
vn 0.00000000 1.00000000 0.00000000
vn 0.00000000 1.00000000 0.00000000
vn 0.00000000 1.00000000 0.00000000
vn 0.00000000 1.00000000 0.00000000
vn 0.00000000 1.00000000 0.00000000
vn 0.00000000 1.00000000 0.00000000
vn 0.00000000 1.00000000 0.00000000
vn 0.00000000 1.00000000 0.00000000
vn 0.00000000 1.00000000 0.00000000
vn 0.00000000 1.00000000 0.00000000
vn 0.00000000 1.00000000 0.00000000
vn 0.00000000 1.00000000 0.00000000
vn 0.00000000 1.00000000 0.00000000
vn 0.00000000 1.00000000 0.00000000
vn 0.00000000 1.00000000 0.00000000
vn 0.00000000 1.00000000 0.00000000
vn 0.00000000 1.00000000 0.00000000
vt 0.30869400 0.81171700
vt 0.30869400 0.81171700
vt 0.30869400 0.81171700
vt 0.30869400 0.82577000
vt 0.30869400 0.82577000
vt 0.30869400 0.81171700
vt 0.30869400 0.81171700
vt 0.30869400 0.81171700
vt 0.30869400 0.82577000
vt 0.30869400 0.82577000
vt 0.34550400 0.81171700
vt 0.34550400 0.81171700
vt 0.34550400 0.81171700
vt 0.34550400 0.82577000
vt 0.34550400 0.82577000
vt 0.34550400 0.81171700
vt 0.34550400 0.81171700
vt 0.34550400 0.81171700
vt 0.34550400 0.82577000
vt 0.34550400 0.82577000
vt 0.34182300 0.78046700
vt 0.34182300 0.81171700
vt 0.34182300 0.81171700
vt 0.34182300 0.78046700
vt 0.31237500 0.78046700
vt 0.31237500 0.81171700
vt 0.31237500 0.81171700
vt 0.31237500 0.78046700
vt 0.31237500 0.79115300
vt 0.31237500 0.82577000
vt 0.31237500 0.82577000
vt 0.31237500 0.79115300
vt 0.34182300 0.82577000
vt 0.34182300 0.79115300
vt 0.34182300 0.79115300
vt 0.34182300 0.82577000
vt 0.31237500 0.78046700
vt 0.31237500 0.81171700
vt 0.31237500 0.78046700
vt 0.31237500 0.81171700
vt 0.34182300 0.78046700
vt 0.34182300 0.81171700
vt 0.34182300 0.81171700
vt 0.34182300 0.78046700
vt 0.34182300 0.79115300
vt 0.34182300 0.82577000
vt 0.34182300 0.82577000
vt 0.34182300 0.79115300
vt 0.31237500 0.82577000
vt 0.31237500 0.82577000
vt 0.31237500 0.79115300
vt 0.31237500 0.79115300
vt 0.30869400 0.78046700
vt 0.30869400 0.81171700
vt 0.30869400 0.81171700
vt 0.30869400 0.78046700
vt 0.30869400 0.78046700
vt 0.30869400 0.81171700
vt 0.30869400 0.78046700
vt 0.30869400 0.81171700
vt 0.30869400 0.82577000
vt 0.30869400 0.82577000
vt 0.30869400 0.79115300
vt 0.30869400 0.79115300
vt 0.30869400 0.82577000
vt 0.30869400 0.79115300
vt 0.30869400 0.82577000
vt 0.30869400 0.79115300
vt 0.34550400 0.78046700
vt 0.34550400 0.81171700
vt 0.34550400 0.78046700
vt 0.34550400 0.81171700
vt 0.34550400 0.81171700
vt 0.34550400 0.78046700
vt 0.34550400 0.81171700
vt 0.34550400 0.78046700
vt 0.34550400 0.79115300
vt 0.34550400 0.82577000
vt 0.34550400 0.82577000
vt 0.34550400 0.79115300
vt 0.34550400 0.82577000
vt 0.34550400 0.79115300
vt 0.34550400 0.79115300
vt 0.34550400 0.82577000
vt 0.34182300 0.79115300
vt 0.34182300 0.82577000
vt 0.34182300 0.82577000
vt 0.34182300 0.79115300
vt 0.34182300 0.82577000
vt 0.34182300 0.82577000
vt 0.31237500 0.82577000
vt 0.31237500 0.79115300
vt 0.31237500 0.82577000
vt 0.31237500 0.79115300
vt 0.31237500 0.82577000
vt 0.31237500 0.82577000
vt 0.31237500 0.81171700
vt 0.31237500 0.78046700
vt 0.31237500 0.81171700
vt 0.31237500 0.78046700
vt 0.34182300 0.81171700
vt 0.34182300 0.78046700
vt 0.34182300 0.78046700
vt 0.34182300 0.81171700
vt 0.30869400 0.83203100
vt 0.30869400 0.83203100
vt 0.30869400 0.86328100
vt 0.34550400 0.86328100
vt 0.34550400 0.83203100
vt 0.34550400 0.83203100
vt 0.34550400 0.86328100
vt 0.34550400 0.83203100
vt 0.34550400 0.83203100
vt 0.30869400 0.86328100
vt 0.30869400 0.83203100
vt 0.30869400 0.83203100
vt 0.31237500 0.83203100
vt 0.31237500 0.86328100
vt 0.31237500 0.83203100
vt 0.34182300 0.83203100
vt 0.34182300 0.83203100
vt 0.34182300 0.86328100
vt 0.34182300 0.83203100
vt 0.34182300 0.83203100
vt 0.34182300 0.86328100
vt 0.31237500 0.83203100
vt 0.31237500 0.86328100
vt 0.31237500 0.83203100
vt 0.30869400 0.83203100
vt 0.30869400 0.86328100
vt 0.30869400 0.83203100
vt 0.30869400 0.86328100
vt 0.30869400 0.83203100
vt 0.30869400 0.83203100
vt 0.34550400 0.83203100
vt 0.34550400 0.83203100
vt 0.34550400 0.86328100
vt 0.34550400 0.83203100
vt 0.34550400 0.86328100
vt 0.34550400 0.83203100
vt 0.34182300 0.83203100
vt 0.34182300 0.83203100
vt 0.34182300 0.86328100
vt 0.34182300 0.86328100
vt 0.34182300 0.83203100
vt 0.34182300 0.83203100
vt 0.31237500 0.83203100
vt 0.31237500 0.86328100
vt 0.31237500 0.83203100
vt 0.31237500 0.83203100
vt 0.31237500 0.83203100
vt 0.31237500 0.86328100
vt 0.43737500 0.66615300
vt 0.46682300 0.66615300
vt 0.43737500 0.66615300
vt 0.43737500 0.66615300
vt 0.46682300 0.66615300
vt 0.43737500 0.66615300
vt 0.46682300 0.66615300
vt 0.46682300 0.66615300
vt 0.48754100 0.66615300
vt 0.46682300 0.66615300
vt 0.48754100 0.66615300
vt 0.45873600 0.66615300
vt 0.46682300 0.66615300
vt 0.45873600 0.66615300
vt 0.43737500 0.66615300
vt 0.46682300 0.66615300
vt 0.43737500 0.66615300
vt 0.43737500 0.66615300
vt 0.46682300 0.66615300
vt 0.43737500 0.66615300
vt 0.46682300 0.66615300
vt 0.46682300 0.66615300
vt 0.48754100 0.66615300
vt 0.46682300 0.66615300
vt 0.48754100 0.66615300
vt 0.45873600 0.66615300
vt 0.46682300 0.66615300
vt 0.45873600 0.66615300
vt 0.43737500 0.66615300
vt 0.46682300 0.66615300
vt 0.43737500 0.66615300
vt 0.43737500 0.66615300
vt 0.46682300 0.66615300
vt 0.43737500 0.66615300
vt 0.46682300 0.66615300
vt 0.46682300 0.66615300
vt 0.48754100 0.66615300
vt 0.46682300 0.66615300
vt 0.48754100 0.66615300
vt 0.45873600 0.66615300
vt 0.46682300 0.66615300
vt 0.45873600 0.66615300
vt 0.43737500 0.66615300
vt 0.46682300 0.66615300
vt 0.43737500 0.66615300
vt 0.43737500 0.66615300
vt 0.46682300 0.66615300
vt 0.43737500 0.66615300
vt 0.46682300 0.66615300
vt 0.46682300 0.66615300
vt 0.48754100 0.66615300
vt 0.46682300 0.66615300
vt 0.48754100 0.66615300
vt 0.45873600 0.66615300
vt 0.46682300 0.66615300
vt 0.45873600 0.66615300
vt 0.18737500 0.91615300
vt 0.21682300 0.91615300
vt 0.18737500 0.91615300
vt 0.21682300 0.91615300
vt 0.18737500 0.91615300
vt 0.21682300 0.91615300
vt 0.18737500 0.91615300
vt 0.21682300 0.91615300
vt 0.18737500 0.91615300
vt 0.21682300 0.91615300
vt 0.18737500 0.91615300
vt 0.21682300 0.91615300
vt 0.18737500 0.91615300
vt 0.21682300 0.91615300
vt 0.21682300 0.91615300
vt 0.18737500 0.91615300
vt 0.18737500 0.91615300
vt 0.21682300 0.91615300
vt 0.21682300 0.91615300
vt 0.18737500 0.91615300
vt 0.18737500 0.91615300
vt 0.21682300 0.91615300
vt 0.21682300 0.91615300
vt 0.18737500 0.91615300
vt 0.18737500 0.91615300
vt 0.21682300 0.91615300
vt 0.21682300 0.91615300
vt 0.18737500 0.91615300
vt 0.18737500 0.91615300
vt 0.21682300 0.91615300
vt 0.21682300 0.91615300
vt 0.18737500 0.91615300
vt 0.18737500 0.91615300
vt 0.21682300 0.91615300
vt 0.21682300 0.91615300
vt 0.18737500 0.91615300
vt 0.18737500 0.91615300
vt 0.21682300 0.91615300
vt 0.21682300 0.91615300
vt 0.18737500 0.91615300
vt 0.18737500 0.91615300
vt 0.21682300 0.91615300
vt 0.21682300 0.91615300
vt 0.18737500 0.91615300
vt 0.18737500 0.91615300
vt 0.21682300 0.91615300
vt 0.21682300 0.91615300
vt 0.18737500 0.91615300
vt 0.18737500 0.91615300
vt 0.21682300 0.91615300
vt 0.21682300 0.91615300
vt 0.18737500 0.91615300
vt 0.18737500 0.91615300
vt 0.21682300 0.91615300
vt 0.21682300 0.91615300
vt 0.18737500 0.91615300
f 20/20/20 110/110/110 136/136/136
f 19/19/19 33/33/33 121/121/121
f 5/5/5 62/62/62 60/60/60
f 9/9/9 30/30/30 27/27/27
f 14/14/14 46/46/46 42/42/42
f 30/30/30 9/9/9 105/105/105
f 86/86/86 79/79/79 135/135/135
f 5/5/5 116/116/116 129/129/129
f 94/94/94 52/52/52 45/45/45
f 4/4/4 49/49/49 128/128/128
f 103/103/103 44/44/44 37/37/37
f 26/26/26 97/97/97 55/55/55
f 40/40/40 49/49/49 4/4/4
f 29/29/29 92/92/92 85/85/85
f 22/22/22 33/33/33 19/19/19
f 85/85/85 88/88/88 83/83/83
f 64/64/64 66/66/66 53/53/53
f 18/18/18 73/73/73 101/101/101
f 94/94/94 88/88/88 85/85/85
f 103/103/103 100/100/100 98/98/98
f 104/104/104 70/70/70 13/13/13
f 80/80/80 82/82/82 71/71/71
f 20/20/20 78/78/78 75/75/75
f 10/10/10 65/65/65 134/134/134
f 98/98/98 100/100/100 57/57/57
f 63/63/63 94/94/94 92/92/92
f 102/102/102 98/98/98 28/28/28
f 69/69/69 103/103/103 102/102/102
f 50/50/50 95/95/95 151/151/151
f 91/91/91 147/147/147 133/133/133
f 58/58/58 99/99/99 38/38/38
f 14/14/14 113/113/113 124/124/124
f 84/84/84 89/89/89 146/146/146
f 72/72/72 81/81/81 15/15/15
f 54/54/54 65/65/65 10/10/10
f 48/48/48 51/51/51 39/39/39
f 47/47/47 123/123/123 145/145/145
f 139/139/139 144/144/144 125/125/125
f 122/122/122 143/143/143 137/137/137
f 107/107/107 132/132/132 148/148/148
f 152/152/152 130/130/130 114/114/114
f 15/15/15 81/81/81 140/140/140
f 96/96/96 61/61/61 131/131/131
f 36/36/36 87/87/87 142/142/142
f 93/93/93 31/31/31 117/117/117
f 32/32/32 35/35/35 24/24/24
f 154/154/154 160/160/160 153/153/153
f 159/159/159 157/157/157 158/158/158
f 153/153/153 160/160/160 163/163/163
f 164/164/164 163/163/163 162/162/162
f 165/165/165 162/162/162 161/161/161
f 166/166/166 161/161/161 159/159/159
f 168/168/168 174/174/174 167/167/167
f 173/173/173 171/171/171 172/172/172
f 167/167/167 174/174/174 177/177/177
f 178/178/178 177/177/177 176/176/176
f 179/179/179 176/176/176 175/175/175
f 180/180/180 175/175/175 173/173/173
f 182/182/182 188/188/188 181/181/181
f 187/187/187 185/185/185 186/186/186
f 181/181/181 188/188/188 191/191/191
f 192/192/192 191/191/191 190/190/190
f 193/193/193 190/190/190 189/189/189
f 194/194/194 189/189/189 187/187/187
f 196/196/196 202/202/202 195/195/195
f 201/201/201 199/199/199 200/200/200
f 195/195/195 202/202/202 205/205/205
f 206/206/206 205/205/205 204/204/204
f 207/207/207 204/204/204 203/203/203
f 208/208/208 203/203/203 201/201/201
f 211/211/211 213/213/213 214/214/214
f 213/213/213 210/210/210 209/209/209
f 217/217/217 219/219/219 220/220/220
f 219/219/219 216/216/216 215/215/215
f 223/223/223 222/222/222 221/221/221
f 227/227/227 226/226/226 225/225/225
f 230/230/230 231/231/231 232/232/232
f 235/235/235 234/234/234 233/233/233
f 239/239/239 238/238/238 237/237/237
f 242/242/242 243/243/243 244/244/244
f 247/247/247 246/246/246 245/245/245
f 251/251/251 250/250/250 249/249/249
f 255/255/255 254/254/254 253/253/253
f 259/259/259 258/258/258 257/257/257
f 263/263/263 262/262/262 261/261/261
f 136/136/136 78/78/78 20/20/20
f 121/121/121 109/109/109 19/19/19
f 60/60/60 3/3/3 5/5/5
f 27/27/27 8/8/8 9/9/9
f 42/42/42 12/12/12 14/14/14
f 105/105/105 119/119/119 30/30/30
f 135/135/135 141/141/141 86/86/86
f 129/129/129 62/62/62 5/5/5
f 45/45/45 88/88/88 94/94/94
f 128/128/128 115/115/115 4/4/4
f 37/37/37 100/100/100 103/103/103
f 55/55/55 6/6/6 26/26/26
f 4/4/4 1/1/1 40/40/40
f 85/85/85 34/34/34 29/29/29
f 19/19/19 17/17/17 22/22/22
f 83/83/83 77/77/77 85/85/85
f 53/53/53 59/59/59 64/64/64
f 101/101/101 23/23/23 18/18/18
f 85/85/85 92/92/92 94/94/94
f 98/98/98 102/102/102 103/103/103
f 13/13/13 43/43/43 104/104/104
f 71/71/71 74/74/74 80/80/80
f 75/75/75 16/16/16 20/20/20
f 134/134/134 106/106/106 10/10/10
f 57/57/57 56/56/56 98/98/98
f 92/92/92 68/68/68 63/63/63
f 28/28/28 21/21/21 102/102/102
f 102/102/102 76/76/76 69/69/69
f 151/151/151 126/126/126 50/50/50
f 133/133/133 67/67/67 91/91/91
f 38/38/38 2/2/2 58/58/58
f 124/124/124 46/46/46 14/14/14
f 146/146/146 138/138/138 84/84/84
f 15/15/15 11/11/11 72/72/72
f 10/10/10 7/7/7 54/54/54
f 39/39/39 41/41/41 48/48/48
f 145/145/145 90/90/90 47/47/47
f 125/125/125 111/111/111 139/139/139
f 137/137/137 108/108/108 122/122/122
f 148/148/148 118/118/118 107/107/107
f 114/114/114 127/127/127 152/152/152
f 140/140/140 112/112/112 15/15/15
f 131/131/131 150/150/150 96/96/96
f 142/142/142 120/120/120 36/36/36
f 117/117/117 149/149/149 93/93/93
f 24/24/24 25/25/25 32/32/32
f 153/153/153 155/155/155 154/154/154
f 158/158/158 156/156/156 159/159/159
f 163/163/163 164/164/164 153/153/153
f 162/162/162 165/165/165 164/164/164
f 161/161/161 166/166/166 165/165/165
f 159/159/159 156/156/156 166/166/166
f 167/167/167 169/169/169 168/168/168
f 172/172/172 170/170/170 173/173/173
f 177/177/177 178/178/178 167/167/167
f 176/176/176 179/179/179 178/178/178
f 175/175/175 180/180/180 179/179/179
f 173/173/173 170/170/170 180/180/180
f 181/181/181 183/183/183 182/182/182
f 186/186/186 184/184/184 187/187/187
f 191/191/191 192/192/192 181/181/181
f 190/190/190 193/193/193 192/192/192
f 189/189/189 194/194/194 193/193/193
f 187/187/187 184/184/184 194/194/194
f 195/195/195 197/197/197 196/196/196
f 200/200/200 198/198/198 201/201/201
f 205/205/205 206/206/206 195/195/195
f 204/204/204 207/207/207 206/206/206
f 203/203/203 208/208/208 207/207/207
f 201/201/201 198/198/198 208/208/208
f 214/214/214 212/212/212 211/211/211
f 209/209/209 214/214/214 213/213/213
f 220/220/220 218/218/218 217/217/217
f 215/215/215 220/220/220 219/219/219
f 221/221/221 224/224/224 223/223/223
f 225/225/225 228/228/228 227/227/227
f 232/232/232 229/229/229 230/230/230
f 233/233/233 236/236/236 235/235/235
f 237/237/237 240/240/240 239/239/239
f 244/244/244 241/241/241 242/242/242
f 245/245/245 248/248/248 247/247/247
f 249/249/249 252/252/252 251/251/251
f 253/253/253 256/256/256 255/255/255
f 257/257/257 260/260/260 259/259/259
f 261/261/261 264/264/264 263/263/263

